<svg width="24" height="24" viewBox="0 0 24 24" fill="none" xmlns="http://www.w3.org/2000/svg">
<path d="M0.319176 2.415C3.36607 6.3 8.99227 13.5 8.99227 13.5V22.5C8.99227 23.325 9.67103 24 10.5006 24H13.5174C14.347 24 15.0257 23.325 15.0257 22.5V13.5C15.0257 13.5 20.6368 6.3 23.6837 2.415C23.8566 2.19356 23.9635 1.92829 23.9922 1.64941C24.0209 1.37053 23.9703 1.08923 23.8461 0.837557C23.7219 0.585882 23.5291 0.37394 23.2898 0.225865C23.0504 0.0777897 22.774 -0.000468053 22.4921 2.10606e-06H1.51078C0.258841 2.10606e-06 -0.45009 1.425 0.319176 2.415Z" fill="white"/>
</svg>
