<svg width="109" height="73" viewBox="0 0 109 73" fill="none" xmlns="http://www.w3.org/2000/svg">
<g clip-path="url(#clip0_2_63)">
<path d="M69.2296 40.5418C69.6111 40.4615 69.9461 40.2337 70.1621 39.9075C70.3782 39.5812 70.4581 39.1826 70.3846 38.7976C70.3682 38.7126 70.3443 38.6291 70.3132 38.5483L74.2758 35.1127L71.6852 34.3756L68.3193 37.7511C67.9658 37.9207 67.6928 38.2234 67.5594 38.5939C67.426 38.9643 67.4429 39.3726 67.6064 39.7306C67.7453 40.031 67.9817 40.2749 68.2767 40.4223C68.5716 40.5697 68.9077 40.6118 69.2296 40.5418L69.2296 40.5418Z" fill="#FFB6B6"/>
<path d="M94.9618 64.9058L95.1059 61.6487C96.6073 60.8416 98.2819 60.4152 99.9843 60.4067C97.6413 62.3333 97.9341 66.0473 96.3456 68.6382C95.844 69.4424 95.1688 70.1228 94.3702 70.629C93.5716 71.1352 92.67 71.4541 91.7322 71.5621L89.7714 72.7696C89.5024 71.261 89.5617 69.7118 89.9453 68.2285C90.3289 66.7452 91.0276 65.3632 91.9934 64.1777C92.5418 63.5181 93.1705 62.9305 93.8649 62.4288C94.3345 63.6742 94.9618 64.9058 94.9618 64.9058Z" fill="#F2F2F2"/>
<path d="M89.9098 71.0934L88.1343 71.0933L87.2896 64.2058L89.91 64.2059L89.9098 71.0934Z" fill="#FFB6B6"/>
<path d="M90.3625 72.8243L84.6377 72.8241V72.7513C84.6378 72.1569 84.8726 71.5869 85.2904 71.1667C85.7083 70.7464 86.275 70.5103 86.866 70.5102H86.8661L87.9118 69.7123L89.8629 70.5104L90.3626 70.5104L90.3625 72.8243Z" fill="#2F2E41"/>
<path d="M81.6613 71.0934L79.8859 71.0933L79.0413 64.2058L81.6617 64.2059L81.6613 71.0934Z" fill="#FFB6B6"/>
<path d="M82.1141 72.8243L76.3894 72.8241V72.7513C76.3894 72.1569 76.6242 71.5869 77.0421 71.1667C77.4599 70.7464 78.0267 70.5103 78.6176 70.5102H78.6177L79.6635 69.7123L81.6145 70.5104L82.1142 70.5104L82.1141 72.8243Z" fill="#2F2E41"/>
<path d="M80.8928 33.4387L92.4411 33.729C94.6344 34.9272 94.6677 37.5203 93.949 40.5992C93.949 40.5992 94.1916 42.4291 93.7064 42.9171C93.2212 43.4051 92.9786 43.4051 93.2212 44.2591C93.4638 45.1131 92.1821 46.5079 92.3378 46.6645C92.4934 46.821 92.8573 47.675 92.8573 47.675L91.6443 54.6289C91.6443 54.6289 90.7952 66.7067 90.5526 66.9507C90.31 67.1946 90.0674 66.9507 90.31 67.5606C90.5526 68.1706 90.7952 67.9266 90.5526 68.1706C90.3377 68.4037 90.1353 68.648 89.9461 68.9026H87.0135C87.0135 68.9026 86.7924 67.6826 86.7924 67.5606C86.7924 67.4386 86.5498 66.7067 86.5498 66.5847C86.5498 66.4627 86.7642 66.247 86.7642 66.247C86.8383 65.999 86.8883 65.7444 86.9137 65.4867C86.9137 65.2427 87.6415 55.8489 87.6415 55.8489L86.1859 43.6491L82.6682 55.6049C82.6682 55.6049 82.6682 66.0967 82.4256 66.3407C82.183 66.5847 82.183 66.4627 82.3043 66.9507C82.4256 67.4386 82.9108 67.3166 82.5469 67.6826C82.183 68.0486 82.0617 67.4386 82.183 68.0486L82.3043 68.6586L78.6653 68.711C78.6653 68.711 78.1801 67.6826 78.4227 67.3166C78.6653 66.9506 78.6507 67.0506 78.3547 66.4516C78.0588 65.8527 77.9375 65.7307 78.0588 65.6087C78.1801 65.4867 78.1801 64.8378 78.1801 64.8378L78.7866 53.1649C78.7866 53.1649 78.9079 40.8432 78.9079 40.4772C78.917 40.2888 78.8825 40.1009 78.8071 39.9283V39.4315L79.2718 37.6712L80.8928 33.4387Z" fill="#2F2E41"/>
<path d="M69.0961 36.5789L71.0478 38.1619L81.6875 29.8671L81.058 15.4303C80.4596 15.9117 79.962 16.5077 79.5941 17.1838C79.2262 17.8599 78.9953 18.6026 78.9146 19.3691L77.0917 27.5243L69.0961 36.5789Z" fill="#E6E6E6"/>
<path d="M79.1692 37.0855C82.9354 37.5696 86.4054 36.1029 89.6831 34.9959C91.1628 34.4962 92.6534 35.0179 94.0271 34.1728C93.4331 28.2883 94.0098 21.6599 95.2716 14.5962C95.3436 14.1963 95.2685 13.7838 95.0603 13.4355C94.8521 13.0872 94.525 12.827 94.1401 12.7034L90.0742 11.5302L88.8224 10.1413L85.5893 10.9667L84.4576 13.0241L80.5684 15.6671C80.3414 15.8213 80.1636 16.0381 80.0562 16.2915C79.9488 16.545 79.9165 16.8242 79.9631 17.0956C81.1315 23.7388 80.8607 30.5572 79.1692 37.0855Z" fill="#E6E6E6"/>
<path d="M91.1891 38.9068C91.5344 38.7249 91.7948 38.4138 91.9141 38.0406C92.0335 37.6675 92.0022 37.262 91.8271 36.9118C91.7882 36.8345 91.7425 36.7608 91.6907 36.6916L94.5709 32.2989L91.8786 32.3007L89.5562 36.4718C89.2621 36.732 89.0816 37.0982 89.0537 37.4911C89.0259 37.8841 89.1529 38.2723 89.4074 38.5718C89.6225 38.8227 89.9161 38.9925 90.2399 39.0533C90.5636 39.1142 90.8984 39.0625 91.1891 38.9068L91.1891 38.9068Z" fill="#FFB6B6"/>
<path d="M90.3756 34.806L92.1384 37.0855L98.3082 27.8409L97.7746 18.4489C97.7066 17.2527 97.3389 16.0932 96.7057 15.0783C96.0725 14.0634 95.1944 13.2261 94.153 12.6442L94.2789 27.081L90.3756 34.806Z" fill="#E6E6E6"/>
<path d="M85.9458 9.60392C88.1249 9.60392 89.8914 7.82726 89.8914 5.63564C89.8914 3.44402 88.1249 1.66736 85.9458 1.66736C83.7668 1.66736 82.0003 3.44402 82.0003 5.63564C82.0003 7.82726 83.7668 9.60392 85.9458 9.60392Z" fill="#FFB6B6"/>
<path d="M83.4319 3.30675C83.5846 3.30795 83.7365 3.32801 83.8843 3.36647C84.1757 3.43692 84.4716 3.48683 84.7699 3.51582C85.6833 3.60225 86.5416 3.99404 87.2076 4.6286C87.8737 5.26316 88.3091 6.1039 88.4443 7.01654C88.6736 6.8155 89.1953 6.44569 89.6229 6.78939C89.6294 6.79484 89.6332 6.79765 89.6482 6.79048C89.9322 6.655 90.4363 4.98727 90.4516 3.51886C90.4596 2.73949 90.3376 1.74426 89.7109 1.4291L89.6779 1.41249L89.6692 1.3764C89.6274 1.20108 89.1595 0.901822 88.3465 0.668898C86.8689 0.245612 84.6663 -0.578957 83.4261 0.634539C83.3322 1.04364 83.0269 1.91911 82.7184 2.01834C82.3768 2.12818 82.0818 2.22297 82.0353 2.64439C81.9965 3.24409 81.9993 3.84579 82.0438 4.4451C82.1595 4.07838 82.3867 3.7574 82.6933 3.52736C82.9114 3.37973 83.1691 3.30274 83.4319 3.30675Z" fill="#2F2E41"/>
<path d="M109 72.8493C109 72.8691 108.996 72.8887 108.989 72.9071C108.981 72.9254 108.97 72.942 108.956 72.956C108.942 72.97 108.926 72.9811 108.908 72.9887C108.889 72.9962 108.87 73.0001 108.85 73H0.14984C0.1101 73 0.0719901 72.9841 0.0438901 72.9559C0.01579 72.9276 1.90735e-06 72.8893 1.90735e-06 72.8493C1.90735e-06 72.8093 0.01579 72.771 0.0438901 72.7427C0.0719901 72.7145 0.1101 72.6986 0.14984 72.6986H108.85C108.87 72.6986 108.889 72.7024 108.908 72.71C108.926 72.7175 108.942 72.7286 108.956 72.7426C108.97 72.7566 108.981 72.7733 108.989 72.7916C108.996 72.8099 109 72.8295 109 72.8493Z" fill="#CCCCCC"/>
<path d="M44.9862 12.806L30.1755 16.1573C29.7787 16.2475 29.4337 16.4924 29.2162 16.8382C28.9987 17.184 28.9264 17.6025 29.0152 18.0018L33.0765 36.1573L50.4781 32.2197C50.6211 32.1878 50.752 32.1152 50.855 32.0106L46.8201 13.973C46.7304 13.5739 46.4869 13.2269 46.1431 13.0081C45.7993 12.7893 45.3832 12.7167 44.9862 12.806Z" fill="#E6E6E6"/>
<path d="M39.6062 15.306L31.4896 17.1425C31.1283 17.2247 30.8141 17.4476 30.6159 17.7624C30.4178 18.0772 30.3519 18.4582 30.4326 18.8219L34.251 35.8915L49.7062 32.3944L46.9254 19.9633C46.5672 18.3705 45.5955 16.9857 44.2233 16.1125C42.8512 15.2394 41.1908 14.9493 39.6062 15.306Z" fill="white"/>
<path d="M46.734 31.4742L36.5449 33.7798C36.5012 33.7896 36.4599 33.8079 36.4233 33.8338C36.3866 33.8597 36.3555 33.8926 36.3315 33.9306C36.3075 33.9686 36.2913 34.011 36.2836 34.0554C36.2759 34.0997 36.2771 34.1451 36.2869 34.1891C36.2967 34.233 36.315 34.2745 36.3408 34.3113C36.3666 34.3481 36.3994 34.3794 36.4373 34.4034C36.4751 34.4274 36.5173 34.4437 36.5614 34.4513C36.6055 34.4589 36.6507 34.4577 36.6943 34.4478L46.8835 32.1422C46.9272 32.1325 46.9685 32.1141 47.0052 32.0882C47.0419 32.0624 47.0731 32.0295 47.0971 31.9915C47.1211 31.9534 47.1374 31.911 47.145 31.8666C47.1527 31.8223 47.1516 31.7768 47.1418 31.7329C47.1319 31.6889 47.1136 31.6474 47.0877 31.6106C47.0619 31.5738 47.0291 31.5425 46.9913 31.5185C46.9534 31.4944 46.9112 31.4782 46.867 31.4706C46.8229 31.463 46.7777 31.4642 46.734 31.4742Z" fill="#E4E4E4"/>
<path d="M46.4385 30.1532L36.2494 32.4587C36.1612 32.4787 36.0845 32.5331 36.0362 32.6099C35.9879 32.6867 35.9719 32.7796 35.9918 32.8683C36.0116 32.957 36.0656 33.0341 36.142 33.0827C36.2184 33.1313 36.3108 33.1474 36.399 33.1274L46.5881 30.8219C46.6318 30.812 46.6731 30.7936 46.7096 30.7676C46.7462 30.7417 46.7774 30.7088 46.8013 30.6708C46.8252 30.6327 46.8414 30.5903 46.8491 30.546C46.8567 30.5016 46.8556 30.4562 46.8458 30.4123C46.8359 30.3684 46.8176 30.3269 46.7918 30.2901C46.7661 30.2533 46.7333 30.222 46.6955 30.1979C46.6577 30.1739 46.6155 30.1575 46.5714 30.1499C46.5274 30.1422 46.4822 30.1433 46.4385 30.1532H46.4385Z" fill="#E4E4E4"/>
<path d="M40.3709 30.139L35.954 31.1384C35.866 31.1583 35.7894 31.2126 35.7411 31.2894C35.6928 31.3661 35.6768 31.459 35.6967 31.5476C35.7165 31.6361 35.7705 31.7132 35.8468 31.7617C35.9231 31.8103 36.0154 31.8264 36.1035 31.8064L40.5203 30.807C40.564 30.7972 40.6054 30.7789 40.642 30.753C40.6787 30.7271 40.7099 30.6943 40.7339 30.6562C40.7579 30.6182 40.7742 30.5758 40.7819 30.5314C40.7895 30.487 40.7884 30.4416 40.7786 30.3976C40.7688 30.3537 40.7504 30.3121 40.7246 30.2754C40.6988 30.2386 40.666 30.2073 40.6281 30.1832C40.5902 30.1592 40.548 30.1429 40.5039 30.1353C40.4597 30.1277 40.4145 30.129 40.3709 30.139Z" fill="#E4E4E4"/>
<path d="M45.5244 26.0668L35.3353 28.3723C35.2916 28.3822 35.2503 28.4006 35.2138 28.4265C35.1772 28.4525 35.1461 28.4854 35.1221 28.5234C35.0738 28.6002 35.0578 28.6932 35.0777 28.7819C35.0975 28.8705 35.1515 28.9477 35.2279 28.9963C35.3043 29.0449 35.3967 29.0609 35.4849 29.041L45.674 26.7355C45.7177 26.7256 45.759 26.7071 45.7955 26.6812C45.8321 26.6553 45.8633 26.6224 45.8872 26.5843C45.9111 26.5463 45.9273 26.5039 45.935 26.4596C45.9426 26.4152 45.9415 26.3698 45.9317 26.3259C45.9218 26.282 45.9035 26.2405 45.8777 26.2037C45.852 26.1669 45.8192 26.1356 45.7814 26.1115C45.7436 26.0874 45.7014 26.0711 45.6573 26.0634C45.6133 26.0558 45.5681 26.0569 45.5244 26.0668Z" fill="#E4E4E4"/>
<path d="M45.2291 24.7464L35.0399 27.0519C34.9963 27.0617 34.9549 27.0801 34.9183 27.106C34.8817 27.1319 34.8505 27.1648 34.8265 27.2028C34.8026 27.2408 34.7863 27.2832 34.7786 27.3275C34.771 27.3719 34.7721 27.4173 34.7819 27.4612C34.7917 27.5052 34.8101 27.5467 34.8359 27.5835C34.8617 27.6203 34.8945 27.6516 34.9323 27.6756C34.9701 27.6996 35.0123 27.7159 35.0564 27.7235C35.1006 27.7311 35.1457 27.7299 35.1894 27.72L45.3785 25.4144C45.4222 25.4046 45.4635 25.3862 45.5 25.3603C45.5366 25.3344 45.5678 25.3015 45.5917 25.2635C45.6156 25.2255 45.6319 25.1831 45.6395 25.1388C45.6472 25.0945 45.646 25.0491 45.6362 25.0052C45.6264 24.9613 45.6081 24.9198 45.5823 24.883C45.5565 24.8463 45.5238 24.815 45.486 24.7909C45.4482 24.7669 45.406 24.7506 45.362 24.743C45.3179 24.7353 45.2727 24.7365 45.2291 24.7464Z" fill="#E4E4E4"/>
<path d="M39.1613 24.7315L34.7444 25.7309C34.7008 25.7408 34.6595 25.7593 34.6229 25.7852C34.5863 25.8111 34.5552 25.844 34.5313 25.8821C34.5074 25.9201 34.4911 25.9625 34.4835 26.0068C34.4759 26.0512 34.477 26.0966 34.4868 26.1405C34.4966 26.1844 34.5149 26.226 34.5407 26.2627C34.5665 26.2995 34.5992 26.3308 34.6371 26.3549C34.6749 26.379 34.717 26.3953 34.7611 26.403C34.8052 26.4106 34.8504 26.4095 34.894 26.3996L39.3109 25.4002C39.3545 25.3903 39.3958 25.3719 39.4324 25.346C39.469 25.3201 39.5001 25.2871 39.524 25.2491C39.5479 25.2111 39.5642 25.1687 39.5718 25.1243C39.5794 25.08 39.5783 25.0346 39.5685 24.9907C39.5587 24.9467 39.5403 24.9052 39.5146 24.8684C39.4888 24.8316 39.4561 24.8003 39.4182 24.7763C39.3804 24.7522 39.3383 24.7359 39.2942 24.7282C39.2501 24.7205 39.2049 24.7217 39.1613 24.7315Z" fill="#E4E4E4"/>
<path d="M44.3148 20.6593L34.1257 22.9648C34.0375 22.9848 33.9608 23.0391 33.9125 23.116C33.8642 23.1928 33.8482 23.2857 33.868 23.3744C33.8879 23.4631 33.9419 23.5402 34.0183 23.5888C34.0947 23.6374 34.1871 23.6535 34.2753 23.6335L44.4644 21.328C44.5081 21.3181 44.5494 21.2997 44.5859 21.2737C44.6225 21.2478 44.6536 21.2149 44.6776 21.1769C44.7015 21.1388 44.7177 21.0964 44.7254 21.0521C44.733 21.0077 44.7319 20.9623 44.7221 20.9184C44.7122 20.8745 44.6939 20.833 44.6681 20.7962C44.6423 20.7594 44.6096 20.7281 44.5718 20.704C44.534 20.68 44.4918 20.6636 44.4477 20.656C44.4036 20.6483 44.3585 20.6494 44.3148 20.6593Z" fill="#E6E6E6"/>
<path d="M44.0195 19.339L33.8303 21.6445C33.7867 21.6544 33.7454 21.6728 33.7088 21.6987C33.6722 21.7247 33.6411 21.7576 33.6172 21.7956C33.5689 21.8724 33.5529 21.9654 33.5727 22.0541C33.5925 22.1427 33.6466 22.2199 33.723 22.2684C33.7993 22.317 33.8918 22.3331 33.9799 22.3132L44.1691 20.0076C44.2127 19.9978 44.254 19.9793 44.2906 19.9534C44.3272 19.9275 44.3583 19.8946 44.3822 19.8565C44.4061 19.8185 44.4224 19.7761 44.43 19.7317C44.4377 19.6874 44.4365 19.642 44.4267 19.5981C44.4169 19.5542 44.3986 19.5126 44.3728 19.4759C44.347 19.4391 44.3143 19.4078 44.2764 19.3837C44.2386 19.3596 44.1965 19.3433 44.1524 19.3356C44.1083 19.3279 44.0631 19.3291 44.0195 19.339Z" fill="#E6E6E6"/>
<path d="M37.9517 19.3241L33.5348 20.3235C33.4467 20.3435 33.37 20.3978 33.3217 20.4746C33.2734 20.5514 33.2574 20.6444 33.2772 20.7331C33.297 20.8218 33.3511 20.8989 33.4275 20.9475C33.5038 20.9961 33.5963 21.0121 33.6844 20.9922L38.1013 19.9928C38.1449 19.9829 38.1862 19.9645 38.2228 19.9385C38.2594 19.9126 38.2905 19.8797 38.3144 19.8417C38.3383 19.8036 38.3546 19.7612 38.3622 19.7169C38.3698 19.6725 38.3687 19.6271 38.3589 19.5832C38.3491 19.5393 38.3308 19.4978 38.305 19.461C38.2792 19.4242 38.2465 19.3929 38.2086 19.3688C38.1708 19.3448 38.1287 19.3284 38.0846 19.3208C38.0405 19.3131 37.9953 19.3142 37.9517 19.3241Z" fill="#E6E6E6"/>
<path d="M15.4388 33.8712C15.3422 33.8713 15.2497 33.9099 15.1814 33.9785C15.1131 34.0472 15.0747 34.1403 15.0746 34.2374V72.1083C15.0747 72.2054 15.1131 72.2985 15.1814 72.3672C15.2497 72.4359 15.3422 72.4745 15.4388 72.4746H62.6497C62.7463 72.4745 62.8388 72.4359 62.9071 72.3672C62.9754 72.2985 63.0137 72.2054 63.0138 72.1083V40.3165C63.0138 40.2194 62.9754 40.1263 62.9071 40.0576C62.8388 39.9889 62.7463 39.9503 62.6497 39.9502H35.5538C35.2787 39.9504 35.0135 39.8473 34.81 39.6612L28.7184 34.0944C28.5613 33.9506 28.3564 33.871 28.1439 33.8712H15.4388Z" fill="#3F3D56"/>
<path d="M71.7808 23.9659L46.5019 13.0356C45.8241 12.7434 45.0587 12.7336 44.3737 13.0083C43.6888 13.2829 43.1401 13.8197 42.848 14.5007L29.6021 45.4885L59.3033 58.331C59.5468 58.4373 59.8156 58.4707 60.0776 58.4274L73.2375 27.6408C73.528 26.9591 73.5377 26.1893 73.2646 25.5004C72.9915 24.8115 72.4579 24.2596 71.7808 23.9659Z" fill="#E6E6E6"/>
<path d="M61.2415 21.8776L47.388 15.8875C46.7708 15.6214 46.0739 15.6123 45.4501 15.8623C44.8263 16.1122 44.3266 16.6008 44.0605 17.2208L31.6067 46.3553L57.9857 57.7613L67.0552 36.5439C68.2145 33.8233 68.2534 30.7513 67.1635 28.0018C66.0736 25.2523 63.9439 23.0498 61.2415 21.8776Z" fill="white"/>
<path d="M54.5977 53.2307L37.2068 45.7111C37.1324 45.6787 37.0523 45.6615 36.9712 45.6603C36.8901 45.6591 36.8096 45.674 36.7342 45.7042C36.6588 45.7343 36.5901 45.7791 36.532 45.836C36.4738 45.8929 36.4274 45.9607 36.3954 46.0357C36.3634 46.1106 36.3463 46.1912 36.3453 46.2727C36.3442 46.3543 36.3592 46.4353 36.3893 46.511C36.4194 46.5868 36.464 46.6558 36.5207 46.7142C36.5773 46.7726 36.6449 46.8191 36.7194 46.8512L54.1103 54.3709C54.1848 54.4032 54.2648 54.4205 54.3459 54.4216C54.427 54.4228 54.5076 54.4079 54.5829 54.3778C54.6583 54.3476 54.727 54.3028 54.7851 54.2459C54.8433 54.1891 54.8897 54.1212 54.9217 54.0463C54.9537 53.9713 54.9708 53.8908 54.9718 53.8092C54.9729 53.7276 54.9579 53.6467 54.9278 53.5709C54.8977 53.4952 54.8531 53.4261 54.7964 53.3677C54.7398 53.3094 54.6722 53.2628 54.5977 53.2307Z" fill="#E4E4E4"/>
<path d="M55.5615 50.976L38.1706 43.4563C38.0201 43.3914 37.8502 43.3891 37.6981 43.4502C37.546 43.5112 37.4242 43.6305 37.3595 43.7818C37.2948 43.9331 37.2925 44.104 37.3532 44.257C37.4138 44.41 37.5323 44.5326 37.6827 44.5977L55.0736 52.1173C55.1481 52.1495 55.2282 52.1666 55.3093 52.1677C55.3904 52.1688 55.4709 52.1538 55.5463 52.1236C55.6216 52.0934 55.6903 52.0486 55.7484 51.9917C55.8065 51.9348 55.8529 51.8669 55.8849 51.792C55.917 51.717 55.934 51.6365 55.9351 51.5549C55.9362 51.4733 55.9213 51.3924 55.8912 51.3166C55.8612 51.2408 55.8166 51.1717 55.76 51.1133C55.7035 51.0549 55.636 51.0082 55.5615 50.976H55.5615Z" fill="#E4E4E4"/>
<path d="M46.6726 44.4624L39.1339 41.2028C39.0595 41.1705 38.9794 41.1533 38.8984 41.1522C38.8173 41.151 38.7368 41.166 38.6615 41.1961C38.5862 41.2263 38.5175 41.2711 38.4594 41.3279C38.4013 41.3848 38.3549 41.4526 38.3229 41.5275C38.2909 41.6024 38.2739 41.683 38.2728 41.7645C38.2717 41.846 38.2867 41.927 38.3167 42.0027C38.3468 42.0784 38.3914 42.1474 38.448 42.2058C38.5046 42.2642 38.572 42.3108 38.6465 42.3429L46.1852 45.6026C46.2596 45.6348 46.3397 45.652 46.4207 45.6532C46.5018 45.6543 46.5823 45.6394 46.6576 45.6092C46.7329 45.5791 46.8016 45.5343 46.8597 45.4774C46.9178 45.4205 46.9642 45.3527 46.9962 45.2778C47.0282 45.2029 47.0452 45.1224 47.0463 45.0408C47.0474 44.9593 47.0324 44.8784 47.0024 44.8026C46.9723 44.7269 46.9277 44.6579 46.8711 44.5995C46.8145 44.5411 46.7471 44.4945 46.6726 44.4624Z" fill="#E4E4E4"/>
<path d="M58.5429 44.0012L41.152 36.4816C41.0015 36.4167 40.8317 36.4146 40.6797 36.4757C40.5276 36.5367 40.4059 36.656 40.3413 36.8072C40.2766 36.9584 40.2743 37.1293 40.3349 37.2822C40.3954 37.4352 40.5138 37.5577 40.6641 37.6229L58.055 45.1426C58.1295 45.1749 58.2097 45.1922 58.2908 45.1934C58.372 45.1945 58.4526 45.1796 58.528 45.1494C58.6035 45.1192 58.6722 45.0744 58.7304 45.0175C58.7886 44.9605 58.8351 44.8926 58.8671 44.8176C58.8992 44.7426 58.9162 44.662 58.9173 44.5803C58.9183 44.4987 58.9034 44.4176 58.8733 44.3418C58.8431 44.266 58.7985 44.1969 58.7418 44.1384C58.6851 44.08 58.6175 44.0334 58.5429 44.0012Z" fill="#E4E4E4"/>
<path d="M59.5062 41.7477L42.1153 34.228C42.0408 34.1957 41.9608 34.1784 41.8797 34.1773C41.7986 34.1761 41.718 34.191 41.6427 34.2211C41.5673 34.2513 41.4986 34.2961 41.4405 34.3529C41.3823 34.4098 41.3359 34.4777 41.3039 34.5526C41.2718 34.6276 41.2548 34.7081 41.2538 34.7897C41.2527 34.8713 41.2677 34.9522 41.2978 35.028C41.3279 35.1037 41.3725 35.1728 41.4292 35.2311C41.4858 35.2895 41.5534 35.3361 41.6279 35.3682L59.0188 42.8878C59.0933 42.9202 59.1733 42.9374 59.2544 42.9386C59.3355 42.9398 59.4161 42.9249 59.4914 42.8947C59.5668 42.8646 59.6355 42.8198 59.6936 42.7629C59.7518 42.706 59.7982 42.6382 59.8302 42.5632C59.8623 42.4883 59.8793 42.4077 59.8803 42.3262C59.8814 42.2446 59.8664 42.1636 59.8363 42.0879C59.8062 42.0121 59.7616 41.9431 59.7049 41.8847C59.6483 41.8263 59.5807 41.7798 59.5062 41.7477Z" fill="#E4E4E4"/>
<path d="M50.6178 35.2329L43.0791 31.9733C42.9286 31.9083 42.7587 31.9061 42.6066 31.9671C42.4545 32.0281 42.3327 32.1474 42.268 32.2987C42.2033 32.45 42.201 32.621 42.2617 32.774C42.3223 32.927 42.4408 33.0495 42.5912 33.1146L50.1299 36.3743C50.2044 36.4065 50.2845 36.4237 50.3656 36.4248C50.4468 36.4259 50.5273 36.4109 50.6027 36.3807C50.678 36.3505 50.7467 36.3057 50.8049 36.2488C50.863 36.1919 50.9094 36.124 50.9415 36.049C50.9735 35.9741 50.9905 35.8935 50.9916 35.8119C50.9927 35.7303 50.9778 35.6493 50.9477 35.5736C50.9177 35.4978 50.873 35.4287 50.8164 35.3702C50.7598 35.3118 50.6923 35.2651 50.6178 35.2329Z" fill="#E4E4E4"/>
<path d="M62.4881 34.7718L45.0972 27.2521C44.9467 27.1874 44.7769 27.1853 44.6249 27.2463C44.473 27.3074 44.3513 27.4266 44.2867 27.5778C44.222 27.729 44.2197 27.8999 44.2802 28.0528C44.3407 28.2057 44.4591 28.3282 44.6093 28.3935L62.0002 35.9131C62.0747 35.9454 62.1548 35.9625 62.2359 35.9636C62.3171 35.9648 62.3976 35.9498 62.473 35.9196C62.5483 35.8894 62.617 35.8445 62.6752 35.7876C62.7333 35.7307 62.7797 35.6628 62.8118 35.5879C62.8438 35.5129 62.8608 35.4323 62.8619 35.3508C62.863 35.2692 62.8481 35.1882 62.818 35.1124C62.788 35.0366 62.7433 34.9675 62.6867 34.9091C62.6301 34.8506 62.5626 34.804 62.4881 34.7718Z" fill="#244369"/>
<path d="M63.4513 32.5182L46.0605 24.9986C45.91 24.9337 45.7402 24.9316 45.5881 24.9927C45.4361 25.0537 45.3144 25.1729 45.2498 25.3242C45.1851 25.4754 45.1828 25.6463 45.2434 25.7992C45.3039 25.9522 45.4223 26.0747 45.5726 26.1399L62.9635 33.6596C63.038 33.6921 63.1182 33.7094 63.1995 33.7107C63.2807 33.712 63.3614 33.6971 63.4369 33.667C63.5125 33.6368 63.5813 33.592 63.6396 33.535C63.6979 33.478 63.7444 33.41 63.7765 33.335C63.8086 33.2599 63.8256 33.1792 63.8266 33.0974C63.8276 33.0157 63.8126 32.9346 63.7824 32.8587C63.7522 32.7829 63.7074 32.7137 63.6506 32.6553C63.5938 32.5969 63.5261 32.5503 63.4513 32.5182Z" fill="#244369"/>
<path d="M54.563 26.0035L47.0243 22.7439C46.8738 22.6789 46.7038 22.6767 46.5517 22.7377C46.3996 22.7987 46.2779 22.918 46.2132 23.0693C46.1485 23.2206 46.1462 23.3916 46.2068 23.5446C46.2674 23.6976 46.386 23.8201 46.5364 23.8852L54.0751 27.1448C54.1496 27.1771 54.2297 27.1943 54.3108 27.1954C54.392 27.1965 54.4725 27.1815 54.5479 27.1513C54.6232 27.1211 54.6919 27.0763 54.7501 27.0194C54.8082 26.9625 54.8546 26.8946 54.8867 26.8196C54.9187 26.7447 54.9357 26.6641 54.9368 26.5825C54.9379 26.5009 54.923 26.4199 54.8929 26.3441C54.8629 26.2683 54.8182 26.1993 54.7616 26.1408C54.705 26.0824 54.6375 26.0357 54.563 26.0035V26.0035Z" fill="#244369"/>
<path d="M35.7945 35.221L20.9838 38.5723C20.587 38.6626 20.242 38.9075 20.0245 39.2533C19.8069 39.5991 19.7347 40.0175 19.8235 40.4168L23.8847 58.5723L41.2864 54.6348C41.4294 54.6029 41.5602 54.5303 41.6633 54.4256L37.6284 36.388C37.5387 35.9889 37.2952 35.6419 36.9514 35.4231C36.6075 35.2044 36.1915 35.1317 35.7945 35.221Z" fill="#E6E6E6"/>
<path d="M30.4145 37.721L22.2979 39.5576C21.9366 39.6397 21.6223 39.8626 21.4242 40.1774C21.226 40.4923 21.1601 40.8733 21.2409 41.2369L25.0593 58.3065L40.5144 54.8094L37.7337 42.3784C37.3755 40.7856 36.4037 39.4007 35.0316 38.5276C33.6595 37.6545 31.999 37.3644 30.4145 37.721Z" fill="white"/>
<path d="M37.5423 53.8892L27.3532 56.1948C27.3095 56.2046 27.2682 56.2229 27.2315 56.2488C27.1949 56.2747 27.1637 56.3076 27.1398 56.3456C27.1158 56.3836 27.0995 56.426 27.0919 56.4704C27.0842 56.5147 27.0853 56.5602 27.0952 56.6041C27.105 56.648 27.1233 56.6895 27.1491 56.7263C27.1749 56.7631 27.2077 56.7944 27.2455 56.8184C27.2834 56.8425 27.3256 56.8587 27.3697 56.8664C27.4138 56.874 27.459 56.8728 27.5026 56.8628L37.6917 54.5572C37.7355 54.5475 37.7768 54.5291 37.8135 54.5033C37.8501 54.4774 37.8814 54.4445 37.9053 54.4065C37.9293 54.3684 37.9456 54.326 37.9533 54.2817C37.961 54.2373 37.9599 54.1918 37.95 54.1479C37.9402 54.1039 37.9219 54.0624 37.896 54.0256C37.8702 53.9888 37.8374 53.9575 37.7995 53.9335C37.7617 53.9094 37.7194 53.8932 37.6753 53.8856C37.6312 53.878 37.586 53.8792 37.5423 53.8892Z" fill="#E4E4E4"/>
<path d="M37.2468 52.5682L27.0577 54.8738C26.9695 54.8937 26.8928 54.9481 26.8445 55.0249C26.7962 55.1017 26.7802 55.1947 26.8 55.2833C26.8199 55.372 26.8739 55.4491 26.9503 55.4977C27.0267 55.5463 27.1191 55.5624 27.2073 55.5424L37.3964 53.2369C37.4846 53.217 37.5612 53.1626 37.6096 53.0858C37.6579 53.009 37.6739 52.916 37.654 52.8274C37.6342 52.7387 37.5801 52.6616 37.5038 52.613C37.4274 52.5644 37.335 52.5483 37.2468 52.5682Z" fill="#E4E4E4"/>
<path d="M31.1792 52.5541L26.7623 53.5535C26.7187 53.5633 26.6775 53.5817 26.6409 53.6076C26.6044 53.6335 26.5733 53.6664 26.5494 53.7044C26.5255 53.7424 26.5093 53.7848 26.5016 53.8291C26.494 53.8734 26.4951 53.9187 26.5049 53.9626C26.5148 54.0065 26.5331 54.0479 26.5588 54.0847C26.5846 54.1214 26.6173 54.1527 26.655 54.1768C26.6928 54.2008 26.7349 54.2171 26.779 54.2248C26.823 54.2324 26.8681 54.2313 26.9117 54.2214L31.3286 53.2221C31.3723 53.2123 31.4137 53.1939 31.4503 53.1681C31.487 53.1422 31.5182 53.1093 31.5422 53.0713C31.5662 53.0333 31.5825 52.9908 31.5901 52.9465C31.5978 52.9021 31.5967 52.8566 31.5869 52.8127C31.577 52.7688 31.5587 52.7272 31.5329 52.6904C31.507 52.6536 31.4743 52.6223 31.4364 52.5983C31.3985 52.5743 31.3563 52.558 31.3121 52.5504C31.268 52.5428 31.2228 52.5441 31.1792 52.5541Z" fill="#E4E4E4"/>
<path d="M36.3327 48.4818L26.1436 50.7873C26.0999 50.7972 26.0586 50.8156 26.022 50.8416C25.9855 50.8675 25.9543 50.9004 25.9304 50.9384C25.8821 51.0153 25.8661 51.1082 25.8859 51.1969C25.9058 51.2856 25.9598 51.3627 26.0362 51.4113C26.1126 51.4599 26.205 51.476 26.2932 51.456L36.4823 49.1505C36.5705 49.1305 36.6471 49.0762 36.6954 48.9994C36.7438 48.9226 36.7598 48.8296 36.7399 48.7409C36.7201 48.6523 36.666 48.5751 36.5897 48.5265C36.5133 48.4779 36.4209 48.4619 36.3327 48.4818Z" fill="#E4E4E4"/>
<path d="M36.0374 47.1615L25.8482 49.467C25.8045 49.4768 25.7632 49.4952 25.7266 49.521C25.69 49.5469 25.6588 49.5798 25.6348 49.6178C25.6108 49.6558 25.5946 49.6982 25.5869 49.7426C25.5793 49.7869 25.5804 49.8324 25.5902 49.8763C25.6 49.9202 25.6184 49.9617 25.6442 49.9985C25.67 50.0353 25.7027 50.0666 25.7406 50.0906C25.7784 50.1147 25.8206 50.131 25.8647 50.1386C25.9088 50.1462 25.954 50.145 25.9976 50.135L36.1868 47.8295C36.2304 47.8196 36.2717 47.8013 36.3083 47.7754C36.3449 47.7495 36.376 47.7166 36.4 47.6786C36.4239 47.6406 36.4401 47.5982 36.4478 47.5539C36.4554 47.5095 36.4543 47.4641 36.4445 47.4203C36.4347 47.3764 36.4163 47.3349 36.3906 47.2981C36.3648 47.2613 36.3321 47.23 36.2942 47.206C36.2564 47.182 36.2143 47.1657 36.1702 47.158C36.1261 47.1504 36.081 47.1515 36.0374 47.1615Z" fill="#E4E4E4"/>
<path d="M29.9695 47.1466L25.5527 48.146C25.4645 48.1659 25.3879 48.2203 25.3396 48.2971C25.2912 48.3739 25.2752 48.4669 25.2951 48.5555C25.3149 48.6442 25.369 48.7213 25.4453 48.7699C25.5217 48.8185 25.6141 48.8346 25.7023 48.8147L30.1191 47.8153C30.2073 47.7953 30.284 47.7409 30.3323 47.6641C30.3806 47.5873 30.3966 47.4944 30.3768 47.4057C30.3569 47.317 30.3029 47.2399 30.2265 47.1913C30.1501 47.1427 30.0577 47.1266 29.9695 47.1466Z" fill="#E4E4E4"/>
<path d="M35.1231 43.0743L24.934 45.3799C24.8903 45.3897 24.849 45.4082 24.8124 45.4341C24.7759 45.46 24.7447 45.493 24.7208 45.531C24.6725 45.6078 24.6565 45.7008 24.6763 45.7894C24.6962 45.8781 24.7502 45.9552 24.8266 46.0038C24.9029 46.0524 24.9954 46.0685 25.0835 46.0486L35.2727 43.743C35.3164 43.7331 35.3577 43.7147 35.3942 43.6888C35.4308 43.6629 35.4619 43.6299 35.4859 43.5919C35.5098 43.5539 35.526 43.5115 35.5337 43.4671C35.5413 43.4228 35.5402 43.3774 35.5303 43.3335C35.5205 43.2896 35.5022 43.248 35.4764 43.2112C35.4506 43.1745 35.4179 43.1431 35.3801 43.1191C35.3423 43.095 35.3001 43.0787 35.256 43.071C35.2119 43.0633 35.1668 43.0645 35.1231 43.0743H35.1231Z" fill="#E6E6E6"/>
<path d="M34.8278 41.754L24.6386 44.0595C24.595 44.0694 24.5537 44.0878 24.5171 44.1138C24.4805 44.1397 24.4494 44.1726 24.4255 44.2107C24.3771 44.2875 24.3611 44.3804 24.381 44.4691C24.4008 44.5578 24.4549 44.6349 24.5312 44.6835C24.6076 44.7321 24.7 44.7482 24.7882 44.7282L34.9773 42.4227C35.0655 42.4028 35.1422 42.3484 35.1905 42.2716C35.2388 42.1948 35.2548 42.1018 35.235 42.0131C35.2151 41.9245 35.1611 41.8474 35.0847 41.7988C35.0084 41.7502 34.9159 41.7341 34.8278 41.754H34.8278Z" fill="#E6E6E6"/>
<path d="M28.7599 41.7391L24.3431 42.7385C24.2549 42.7585 24.1783 42.8128 24.13 42.8896C24.0816 42.9664 24.0656 43.0594 24.0855 43.1481C24.1053 43.2368 24.1594 43.3139 24.2357 43.3625C24.3121 43.4111 24.4045 43.4272 24.4927 43.4072L28.9095 42.4078C28.9532 42.3979 28.9945 42.3795 29.031 42.3536C29.0676 42.3276 29.0988 42.2947 29.1227 42.2567C29.1466 42.2186 29.1628 42.1762 29.1705 42.1319C29.1781 42.0875 29.177 42.0421 29.1672 41.9982C29.1573 41.9543 29.139 41.9128 29.1132 41.876C29.0875 41.8392 29.0547 41.8079 29.0169 41.7838C28.9791 41.7598 28.9369 41.7434 28.8929 41.7358C28.8488 41.7281 28.8036 41.7292 28.7599 41.7391Z" fill="#E6E6E6"/>
<path d="M15.126 43.8181C15.0782 43.8181 15.0308 43.8275 14.9866 43.8459C14.9425 43.8643 14.9023 43.8913 14.8685 43.9253C14.8347 43.9593 14.8079 43.9997 14.7895 44.0441C14.7712 44.0885 14.7618 44.1361 14.7618 44.1842C14.7618 44.198 14.773 72.4027 14.773 72.4027C14.783 72.4922 14.8254 72.5749 14.8922 72.6349C14.9589 72.6949 15.0454 72.728 15.1349 72.728H65.8496C65.9391 72.7281 66.0256 72.6949 66.0923 72.6349C66.1591 72.5749 66.2015 72.4922 66.2115 72.4027L69.3682 44.2253C69.3739 44.1741 69.3689 44.1222 69.3533 44.0731C69.3378 44.024 69.3121 43.9787 69.2779 43.9403C69.2439 43.9016 69.2021 43.8707 69.1553 43.8497C69.1085 43.8286 69.0577 43.8178 69.0064 43.8181L15.126 43.8181Z" fill="#3F3D56"/>
<path d="M18.7047 45.3795C18.1902 45.381 17.6969 45.5861 17.3315 45.9504C16.9661 46.3147 16.7579 46.809 16.752 47.3265L16.8153 69.1853C16.813 69.4446 16.8619 69.7019 16.959 69.9421C17.0561 70.1824 17.1996 70.401 17.3812 70.5852C17.5627 70.7694 17.7788 70.9156 18.0168 71.0153C18.2549 71.1151 18.5102 71.1665 18.7681 71.1665H50.9615C54.6538 71.1689 58.2174 69.8022 60.9705 67.3277C63.7236 64.8531 65.473 61.4446 65.8839 57.7541L67.0256 47.5636C67.0564 47.2888 67.0292 47.0106 66.9457 46.7472C66.8622 46.4837 66.7244 46.241 66.5412 46.0348C66.358 45.8287 66.1336 45.6637 65.8827 45.5508C65.6318 45.4379 65.36 45.3795 65.0851 45.3795H18.7047ZM68.0392 45.3795L68.0335 45.2529H68.0392V45.3795Z" fill="#244369"/>
<path d="M32.7672 61.7561H20.2959C20.167 61.7561 20.0434 61.7046 19.9523 61.613C19.8612 61.5213 19.81 61.397 19.81 61.2674C19.81 61.1378 19.8612 61.0135 19.9523 60.9219C20.0434 60.8302 20.167 60.7787 20.2959 60.7787H32.7672C33.3938 60.7699 33.4001 61.765 32.7672 61.7561Z" fill="#E4E4E4"/>
<path d="M49.5674 64.3124H20.2959C20.167 64.3124 20.0434 64.261 19.9523 64.1693C19.8612 64.0777 19.81 63.9534 19.81 63.8237C19.81 63.6941 19.8612 63.5698 19.9523 63.4782C20.0434 63.3865 20.167 63.335 20.2959 63.335H49.5674C50.1941 63.3263 50.2003 64.3213 49.5674 64.3124Z" fill="#E4E4E4"/>
</g>
<defs>
<clipPath id="clip0_2_63">
<rect width="109" height="73" fill="white"/>
</clipPath>
</defs>
</svg>
