<svg width="514" height="76" viewBox="0 0 514 76" fill="none" xmlns="http://www.w3.org/2000/svg">
<path d="M19.6452 23.218V28.835H7.91921V34.903H16.6932V40.356H7.91921V52H0.908211V23.218H19.6452ZM41.2471 46.916H30.5051L28.7831 52H21.4441L31.8581 23.218H39.9761L50.3901 52H42.9691L41.2471 46.916ZM39.4431 41.504L35.8761 30.967L32.3501 41.504H39.4431ZM70.2466 52L60.5706 39.29V52H53.5596V23.218H60.5706V35.846L70.1646 23.218H78.4056L67.2536 37.322L78.8156 52H70.2466ZM102.852 23.218V28.835H95.2265V52H88.2155V28.835H80.5895V23.218H102.852ZM113.259 23.218V40.438C113.259 42.16 113.683 43.4857 114.53 44.415C115.377 45.3443 116.621 45.809 118.261 45.809C119.901 45.809 121.158 45.3443 122.033 44.415C122.908 43.4857 123.345 42.16 123.345 40.438V23.218H130.356V40.397C130.356 42.9663 129.809 45.1393 128.716 46.916C127.623 48.6927 126.147 50.032 124.288 50.934C122.457 51.836 120.407 52.287 118.138 52.287C115.869 52.287 113.833 51.8497 112.029 50.975C110.252 50.073 108.845 48.7337 107.806 46.957C106.767 45.153 106.248 42.9663 106.248 40.397V23.218H113.259ZM149.957 52L143.971 41.135H142.29V52H135.279V23.218H147.046C149.315 23.218 151.242 23.6143 152.827 24.407C154.44 25.1997 155.643 26.293 156.435 27.687C157.228 29.0537 157.624 30.5843 157.624 32.279C157.624 34.1923 157.078 35.9007 155.984 37.404C154.918 38.9073 153.333 39.9733 151.228 40.602L157.87 52H149.957ZM142.29 36.174H146.636C147.921 36.174 148.878 35.8597 149.506 35.231C150.162 34.6023 150.49 33.714 150.49 32.566C150.49 31.4727 150.162 30.6117 149.506 29.983C148.878 29.3543 147.921 29.04 146.636 29.04H142.29V36.174ZM179.655 34.698V40.52H161.615V34.698H179.655ZM199.421 52.287C196.715 52.287 194.227 51.6583 191.959 50.401C189.717 49.1437 187.927 47.3943 186.588 45.153C185.276 42.8843 184.62 40.3423 184.62 37.527C184.62 34.7117 185.276 32.1833 186.588 29.942C187.927 27.7007 189.717 25.9513 191.959 24.694C194.227 23.4367 196.715 22.808 199.421 22.808C202.127 22.808 204.6 23.4367 206.842 24.694C209.11 25.9513 210.887 27.7007 212.172 29.942C213.484 32.1833 214.14 34.7117 214.14 37.527C214.14 40.3423 213.484 42.8843 212.172 45.153C210.86 47.3943 209.083 49.1437 206.842 50.401C204.6 51.6583 202.127 52.287 199.421 52.287ZM199.421 45.891C201.717 45.891 203.548 45.1257 204.915 43.595C206.309 42.0643 207.006 40.0417 207.006 37.527C207.006 34.985 206.309 32.9623 204.915 31.459C203.548 29.9283 201.717 29.163 199.421 29.163C197.097 29.163 195.239 29.9147 193.845 31.418C192.478 32.9213 191.795 34.9577 191.795 37.527C191.795 40.069 192.478 42.1053 193.845 43.636C195.239 45.1393 197.097 45.891 199.421 45.891ZM235.67 34.698V40.52H217.63V34.698H235.67ZM248.834 23.218V52H241.823V23.218H248.834ZM279.663 52H272.652L260.926 34.247V52H253.915V23.218H260.926L272.652 41.053V23.218H279.663V52ZM302.662 46.916H291.92L290.198 52H282.859L293.273 23.218H301.391L311.805 52H304.384L302.662 46.916ZM300.858 41.504L297.291 30.967L293.765 41.504H300.858ZM335.68 23.218V28.835H328.054V52H321.043V28.835H313.417V23.218H335.68ZM352.81 52.287C350.104 52.287 347.617 51.6583 345.348 50.401C343.107 49.1437 341.317 47.3943 339.977 45.153C338.665 42.8843 338.009 40.3423 338.009 37.527C338.009 34.7117 338.665 32.1833 339.977 29.942C341.317 27.7007 343.107 25.9513 345.348 24.694C347.617 23.4367 350.104 22.808 352.81 22.808C355.516 22.808 357.99 23.4367 360.231 24.694C362.5 25.9513 364.277 27.7007 365.561 29.942C366.873 32.1833 367.529 34.7117 367.529 37.527C367.529 40.3423 366.873 42.8843 365.561 45.153C364.249 47.3943 362.473 49.1437 360.231 50.401C357.99 51.6583 355.516 52.287 352.81 52.287ZM352.81 45.891C355.106 45.891 356.938 45.1257 358.304 43.595C359.698 42.0643 360.395 40.0417 360.395 37.527C360.395 34.985 359.698 32.9623 358.304 31.459C356.938 29.9283 355.106 29.163 352.81 29.163C350.487 29.163 348.628 29.9147 347.234 31.418C345.868 32.9213 345.184 34.9577 345.184 37.527C345.184 40.069 345.868 42.1053 347.234 43.636C348.628 45.1393 350.487 45.891 352.81 45.891ZM386.108 52L380.122 41.135H378.441V52H371.43V23.218H383.197C385.465 23.218 387.392 23.6143 388.978 24.407C390.59 25.1997 391.793 26.293 392.586 27.687C393.378 29.0537 393.775 30.5843 393.775 32.279C393.775 34.1923 393.228 35.9007 392.135 37.404C391.069 38.9073 389.483 39.9733 387.379 40.602L394.021 52H386.108ZM378.441 36.174H382.787C384.071 36.174 385.028 35.8597 385.657 35.231C386.313 34.6023 386.641 33.714 386.641 32.566C386.641 31.4727 386.313 30.6117 385.657 29.983C385.028 29.3543 384.071 29.04 382.787 29.04H378.441V36.174Z" fill="white"/>
<g clip-path="url(#clip0_0_1)">
<path d="M499.074 75.4295C500.156 72.8873 500.919 70.1204 500.558 67.3822C500.434 66.4537 500.165 65.5506 499.76 64.7065C499.433 64.0184 499.012 63.3799 498.508 62.8098C498.333 62.6087 498.094 62.4753 497.832 62.433C497.57 62.3907 497.301 62.4421 497.072 62.5783C497.037 62.5987 497.002 62.6205 496.969 62.6436C496.792 62.7685 496.653 62.9394 496.566 63.1379C496.549 63.1759 496.535 63.215 496.524 63.255C496.474 63.4222 496.46 63.5982 496.484 63.7711C496.675 65.1803 496.633 66.6113 496.362 68.0072C496.293 68.3626 496.208 68.7148 496.108 69.0638C495.884 68.7826 495.645 68.5131 495.393 68.2563C494.739 67.5922 493.985 67.0352 493.159 66.606H493.157C493.153 66.6033 493.151 66.6019 493.147 66.5992C492.144 66.0872 490.808 66.2997 490.027 66.6482C489.976 66.67 489.927 66.6945 489.879 66.7177C489.472 66.9274 489.27 67.1684 489.444 67.3263C489.483 67.3604 489.522 67.3958 489.559 67.4312C490.743 68.5285 491.712 69.8371 492.419 71.2901V71.2915C492.699 71.8699 492.936 72.469 493.126 73.0834C493.388 73.9317 493.606 74.8726 494.118 75.5643C494.17 75.6371 494.227 75.7067 494.287 75.7726L498.861 75.7359C498.872 75.7304 498.881 75.7263 498.892 75.7209L499.074 75.7277C499.067 75.695 499.059 75.6623 499.051 75.6297V75.6269C499.047 75.6092 499.041 75.5902 499.037 75.5738C499.033 75.5602 499.03 75.548 499.028 75.5371C499.036 75.5166 499.044 75.4976 499.053 75.4771C499.06 75.4608 499.067 75.4458 499.074 75.4295Z" fill="#F0F0F0"/>
<path d="M499.051 75.6269C499.049 75.6371 499.045 75.6468 499.039 75.655C499.033 75.6632 499.025 75.6696 499.015 75.6737C499.006 75.6778 498.996 75.6794 498.985 75.6784C498.975 75.6773 498.965 75.6737 498.957 75.6678C498.769 75.5311 498.563 75.4215 498.345 75.3423C498.343 75.341 498.343 75.3423 498.343 75.3423C498.068 75.243 497.784 75.1674 497.496 75.1163C497.493 75.1163 497.492 75.1149 497.489 75.1149C497.372 75.0918 497.256 75.0714 497.139 75.0496C496.571 74.9447 495.994 74.8181 495.503 74.494C495.303 74.3698 495.131 74.2045 494.999 74.009C494.867 73.8135 494.778 73.5922 494.738 73.3598C494.666 72.9036 494.757 72.4448 494.795 71.99C494.798 71.9573 494.801 71.9232 494.802 71.8906C494.805 71.8483 494.806 71.8075 494.806 71.7667C494.82 71.3538 494.737 70.9434 494.564 70.5684C494.342 70.1195 494.051 69.7087 493.701 69.3511C493.52 69.1564 493.332 68.9689 493.136 68.7887H493.134C493.126 68.7806 493.119 68.7738 493.111 68.7669C493.111 68.7656 493.11 68.7642 493.109 68.7629C492.271 67.9995 491.32 67.3702 490.291 66.8974C490.254 66.8811 490.216 66.8634 490.178 66.847C490.079 66.8021 489.98 66.7599 489.879 66.7177C489.927 66.6945 489.976 66.67 490.027 66.6482C491.176 67.1351 492.235 67.8097 493.163 68.6444C493.194 68.6716 493.225 68.7002 493.255 68.7288C493.49 68.9467 493.714 69.175 493.926 69.4137C494.266 69.7804 494.541 70.2021 494.739 70.661C494.885 71.0323 494.95 71.4308 494.928 71.8293C494.925 71.9055 494.92 71.9818 494.913 72.0594C494.871 72.5183 494.777 72.9921 494.882 73.451C495.001 73.9739 495.406 74.3388 495.876 74.5621C496.187 74.7012 496.513 74.8026 496.848 74.8644C497.541 75.0101 498.256 75.0809 498.862 75.454H498.863C498.873 75.4608 498.882 75.4662 498.891 75.4717C498.892 75.4717 498.892 75.4717 498.892 75.4731C498.936 75.4991 498.978 75.5278 499.018 75.5588C499.021 75.5602 499.024 75.5629 499.026 75.5643C499.03 75.5671 499.034 75.5703 499.037 75.5738C499.043 75.581 499.048 75.5895 499.05 75.5987C499.053 75.608 499.053 75.6176 499.051 75.6269Z" fill="white"/>
<path d="M493.22 68.7755C493.466 68.4686 493.596 68.0838 493.586 67.6897C493.576 67.2957 493.427 66.918 493.165 66.6242C493.111 66.565 493.017 66.6451 493.07 66.7045C493.315 66.9776 493.454 67.3294 493.463 67.6964C493.471 68.0634 493.349 68.4214 493.117 68.7057C493.067 68.7676 493.17 68.837 493.22 68.7755Z" fill="white"/>
<path d="M494.845 71.7625C494.047 71.8555 493.243 71.6435 492.594 71.1686C492.53 71.1215 492.46 71.224 492.524 71.271C493.201 71.764 494.038 71.9829 494.868 71.8843C494.948 71.8748 494.924 71.7531 494.845 71.7625Z" fill="white"/>
<path d="M490.299 66.8824C490.296 66.8879 490.294 66.892 490.291 66.8974C490.216 67.0353 490.112 67.1547 489.985 67.2471C489.858 67.3394 489.713 67.4023 489.559 67.4312C489.522 67.3958 489.483 67.3604 489.444 67.3263C489.45 67.3225 489.457 67.3201 489.464 67.3195C489.612 67.3032 489.754 67.2518 489.878 67.1697C490.002 67.0875 490.105 66.9769 490.178 66.847C490.185 66.8361 490.192 66.8239 490.197 66.813C490.202 66.8062 490.208 66.8005 490.214 66.796C490.221 66.7915 490.229 66.7884 490.237 66.7869C490.245 66.7854 490.253 66.7855 490.261 66.7871C490.269 66.7888 490.276 66.792 490.283 66.7966C490.296 66.8062 490.305 66.8204 490.308 66.8363C490.311 66.8522 490.308 66.8687 490.299 66.8824Z" fill="white"/>
<path d="M421.948 0.74115C419.507 0.74391 417.166 1.71771 415.439 3.4489C413.713 5.18009 412.742 7.52729 412.739 9.97556V45.3648C412.742 47.8131 413.713 50.1603 415.439 51.8914C417.166 53.6226 419.507 54.5964 421.948 54.5992H504.052C506.493 54.5964 508.834 53.6226 510.561 51.8914C512.287 50.1603 513.258 47.8131 513.261 45.3648V9.97556C513.258 7.52729 512.287 5.18009 510.561 3.4489C508.834 1.71771 506.493 0.74391 504.052 0.74115H421.948Z" fill="white"/>
<path d="M504.052 55.3404H421.948C419.311 55.3374 416.782 54.2855 414.917 52.4153C413.052 50.5452 412.003 48.0096 412 45.3648V9.97561C412.003 7.33083 413.052 4.79523 414.917 2.9251C416.782 1.05496 419.311 0.0030074 421.948 3.05176e-05H504.052C506.689 0.0030056 509.218 1.05496 511.083 2.92509C512.948 4.79523 513.997 7.33083 514 9.97561V45.3648C513.997 48.0096 512.948 50.5452 511.083 52.4153C509.218 54.2855 506.689 55.3374 504.052 55.3404ZM421.948 1.48236C419.703 1.4849 417.55 2.38054 415.962 3.97278C414.374 5.56502 413.481 7.72384 413.478 9.97561V45.3648C413.481 47.6166 414.374 49.7754 415.962 51.3677C417.55 52.9599 419.703 53.8555 421.948 53.8581H504.052C506.297 53.8555 508.45 52.9599 510.038 51.3677C511.626 49.7754 512.519 47.6166 512.522 45.3648V9.97561C512.519 7.72384 511.626 5.56502 510.038 3.97278C508.45 2.38054 506.297 1.4849 504.052 1.48236H421.948Z" fill="#E6E6E6"/>
<path d="M463.22 8.06815H424.175C423.341 8.06958 422.543 8.40217 421.953 8.99306C421.364 9.58394 421.032 10.3849 421.031 11.2206V28.8801C421.031 29.0674 421.048 29.2544 421.083 29.4384C421.095 29.5224 421.115 29.6039 421.134 29.6855C421.313 30.3575 421.708 30.9516 422.258 31.3759C422.807 31.8002 423.481 32.031 424.175 32.0325H463.22C463.284 32.0325 463.349 32.03 463.41 32.0251H463.454V32.0226C463.467 32.023 463.479 32.0222 463.491 32.0202C463.504 32.0202 463.519 32.0177 463.531 32.0177C463.535 32.0181 463.539 32.0172 463.543 32.0152C463.57 32.0127 463.597 32.0103 463.622 32.0078C463.666 32.0004 463.711 31.9954 463.753 31.988C463.758 31.986 463.764 31.9852 463.77 31.9856C463.777 31.9818 463.786 31.9801 463.794 31.9806C463.795 31.9797 463.797 31.979 463.798 31.9786C463.799 31.9781 463.801 31.978 463.802 31.9782C463.829 31.9732 463.856 31.9683 463.883 31.9609C463.898 31.9588 463.913 31.9555 463.928 31.951C463.982 31.9386 464.036 31.9263 464.088 31.909C464.112 31.9016 464.134 31.8966 464.159 31.8892C464.191 31.8793 464.226 31.867 464.258 31.8546C464.274 31.85 464.291 31.8442 464.307 31.8373C464.309 31.8373 464.311 31.8368 464.312 31.836C464.314 31.8351 464.316 31.8339 464.317 31.8324C464.388 31.8072 464.458 31.7783 464.526 31.7459C464.585 31.7188 464.642 31.6891 464.699 31.6595C464.721 31.6496 464.741 31.6372 464.763 31.6249C464.768 31.6225 464.773 31.6191 464.778 31.615C464.834 31.5804 464.891 31.5458 464.945 31.5137C464.948 31.5112 464.948 31.5088 464.95 31.5088C464.95 31.5088 464.951 31.5087 464.951 31.5086C464.951 31.5085 464.952 31.5083 464.952 31.5081C464.952 31.5078 464.952 31.5076 464.952 31.5072C464.952 31.5069 464.952 31.5066 464.952 31.5063C465.01 31.4698 465.066 31.4303 465.12 31.3877H465.122C465.137 31.3753 465.15 31.3655 465.162 31.3556C465.179 31.3432 465.196 31.3284 465.211 31.3161C465.241 31.2914 465.27 31.2666 465.297 31.2419C465.314 31.2293 465.33 31.2152 465.344 31.1999C465.386 31.1629 465.426 31.1234 465.465 31.0838C465.486 31.0637 465.506 31.0422 465.524 31.0196C465.555 30.9901 465.584 30.9588 465.61 30.9257C465.635 30.8936 465.662 30.8615 465.687 30.8294C465.716 30.7956 465.743 30.7602 465.768 30.7231C465.812 30.6638 465.852 30.6045 465.891 30.5403C465.923 30.4884 465.955 30.4341 465.985 30.3797C466 30.3525 466.014 30.3229 466.029 30.2932C466.032 30.2932 466.032 30.2908 466.032 30.2883C466.059 30.2364 466.083 30.1845 466.106 30.1302C466.115 30.1079 466.125 30.0882 466.133 30.066C466.152 30.024 466.167 29.9795 466.184 29.935C466.211 29.8535 466.239 29.7695 466.261 29.6855C466.28 29.604 466.3 29.5224 466.312 29.4384C466.347 29.2544 466.365 29.0674 466.364 28.8801V11.2206C466.363 10.3849 466.031 9.58394 465.442 8.99306C464.853 8.40217 464.054 8.06958 463.22 8.06815Z" fill="#244369"/>
<path opacity="0.3" d="M466.364 13.1328H421.031V13.3798H466.364V13.1328Z" fill="white"/>
<path opacity="0.3" d="M466.364 15.8504H421.031V16.0974H466.364V15.8504Z" fill="white"/>
<path opacity="0.3" d="M466.364 18.568H421.031V18.815H466.364V18.568Z" fill="white"/>
<path opacity="0.3" d="M466.364 21.2856H421.031V21.5326H466.364V21.2856Z" fill="white"/>
<path opacity="0.3" d="M466.364 24.0032H421.031V24.2503H466.364V24.0032Z" fill="white"/>
<path opacity="0.3" d="M466.364 26.7208H421.031V26.9679H466.364V26.7208Z" fill="white"/>
<path opacity="0.3" d="M466.312 29.4384C466.3 29.5224 466.28 29.6039 466.261 29.6855H421.065C421.051 29.6038 421.041 29.5213 421.036 29.4384H466.312Z" fill="white"/>
<g opacity="0.1">
<path opacity="0.1" d="M466.364 25.0557V28.8801C466.365 29.0674 466.347 29.2543 466.312 29.4384C466.3 29.5224 466.28 29.6039 466.261 29.6855C466.239 29.7695 466.211 29.8535 466.184 29.935C466.167 29.9795 466.152 30.0239 466.133 30.0659C466.125 30.0882 466.115 30.1079 466.106 30.1302C466.083 30.1845 466.059 30.2364 466.032 30.2883C466.032 30.2908 466.032 30.2932 466.029 30.2932C466.014 30.3229 466 30.3525 465.985 30.3797C465.955 30.434 465.923 30.4884 465.891 30.5403C465.852 30.6045 465.812 30.6638 465.768 30.7231C465.743 30.7601 465.716 30.7956 465.687 30.8293C465.662 30.8614 465.635 30.8936 465.61 30.9257C465.584 30.9587 465.555 30.9901 465.524 31.0196C465.506 31.0422 465.486 31.0636 465.465 31.0838C465.425 31.1233 465.386 31.1629 465.344 31.1999C465.33 31.2152 465.314 31.2292 465.297 31.2419C465.27 31.2666 465.241 31.2913 465.211 31.316C465.196 31.3284 465.179 31.3432 465.162 31.3556C465.15 31.3654 465.137 31.3753 465.122 31.3877H465.12C465.066 31.4302 465.01 31.4698 464.952 31.5063C464.952 31.5066 464.952 31.5069 464.952 31.5072C464.952 31.5075 464.952 31.5078 464.952 31.508C464.952 31.5083 464.951 31.5084 464.951 31.5086C464.951 31.5087 464.95 31.5087 464.95 31.5087C464.948 31.5087 464.948 31.5112 464.945 31.5137C464.911 31.5384 464.874 31.5606 464.837 31.5829C464.817 31.5952 464.797 31.6051 464.778 31.615C464.773 31.6191 464.768 31.6224 464.763 31.6248C464.741 31.6372 464.721 31.6496 464.699 31.6594C464.642 31.6891 464.585 31.7187 464.526 31.7459C464.458 31.7783 464.388 31.8072 464.317 31.8324C464.316 31.8339 464.314 31.8351 464.312 31.836C464.311 31.8368 464.309 31.8373 464.307 31.8373C464.291 31.8442 464.274 31.8499 464.258 31.8546C464.226 31.8669 464.191 31.8793 464.159 31.8892C464.134 31.8966 464.112 31.9015 464.088 31.909C464.036 31.9262 463.982 31.9386 463.928 31.9509C463.913 31.9554 463.898 31.9587 463.883 31.9608C463.856 31.9682 463.829 31.9732 463.802 31.9781C463.801 31.9779 463.799 31.9781 463.798 31.9785C463.797 31.9789 463.795 31.9797 463.794 31.9806C463.786 31.98 463.777 31.9818 463.77 31.9855C463.764 31.9851 463.758 31.986 463.753 31.988C463.711 31.9954 463.666 32.0004 463.622 32.0078C463.597 32.0102 463.57 32.0127 463.543 32.0152C463.539 32.0172 463.535 32.018 463.531 32.0177C463.504 32.0201 463.479 32.0226 463.454 32.0251H463.45C463.422 32.0275 463.395 32.0275 463.368 32.03C463.319 32.0325 463.27 32.0325 463.22 32.0325H424.175C423.481 32.031 422.807 31.8002 422.258 31.3759C421.708 30.9516 421.313 30.3575 421.134 29.6855H421.065C421.051 29.6038 421.041 29.5213 421.036 29.4384C421.033 29.3915 421.031 29.342 421.031 29.2951V24.9865C421.548 25.0018 422.061 25.0857 422.556 25.236C423.896 25.6461 425.2 26.3403 426.599 26.3403C426.71 26.3403 426.826 26.3354 426.939 26.3255C428.412 26.202 429.558 25.2854 430.511 24.2503C430.588 24.1687 430.664 24.0872 430.736 24.0032C430.916 23.8031 431.088 23.598 431.256 23.3954C431.791 22.7176 432.391 22.0937 433.047 21.5326C433.153 21.4462 433.259 21.3646 433.367 21.2856C434.003 20.8099 434.752 20.5092 435.54 20.4135C435.641 20.4036 435.742 20.3962 435.843 20.3937C436.898 20.3616 437.888 20.7421 438.79 21.2856C438.92 21.3646 439.051 21.4462 439.177 21.5326C439.608 21.8257 440.023 22.1416 440.421 22.4788C441.035 23.0197 441.676 23.5285 442.342 24.0032C442.392 24.0378 442.441 24.0724 442.49 24.102C442.567 24.1539 442.646 24.2033 442.724 24.2503C443.399 24.6853 444.158 24.9724 444.952 25.0927C444.979 25.0976 445.008 25.1026 445.038 25.105C446.321 25.2558 447.516 24.8753 448.608 24.2503C448.743 24.1712 448.881 24.0897 449.014 24.0032C449.867 23.435 450.666 22.79 451.402 22.0762C451.594 21.8958 451.789 21.713 451.991 21.5326C452.082 21.4511 452.173 21.3671 452.267 21.2856C453.73 19.9959 455.418 18.815 457.411 18.815C457.495 18.815 457.581 18.8175 457.667 18.8224C459.101 18.8916 460.36 19.5883 461.417 20.4728C461.724 20.7282 462.018 20.9995 462.297 21.2856C462.309 21.2979 462.319 21.3078 462.331 21.3202C462.4 21.3893 462.469 21.461 462.533 21.5326C463.321 22.3603 464.048 23.2447 464.906 24.0032C464.999 24.0897 465.095 24.1712 465.194 24.2502C465.49 24.4964 465.802 24.7209 466.13 24.9222C466.207 24.9692 466.285 25.0136 466.364 25.0557Z" fill="black"/>
</g>
<g opacity="0.1">
<path opacity="0.1" d="M466.364 21.3226V28.8801C466.365 29.0674 466.347 29.2543 466.312 29.4384C466.3 29.5224 466.28 29.6039 466.261 29.6855C466.239 29.7694 466.211 29.8535 466.184 29.935C466.167 29.9795 466.152 30.0239 466.133 30.0659C466.125 30.0882 466.115 30.1079 466.106 30.1302C466.083 30.1845 466.059 30.2364 466.032 30.2883C466.032 30.2907 466.032 30.2932 466.029 30.2932C466.014 30.3228 466 30.3525 465.985 30.3797C465.955 30.434 465.923 30.4884 465.891 30.5403C465.852 30.6045 465.812 30.6638 465.768 30.7231C465.743 30.7601 465.716 30.7956 465.687 30.8293C465.662 30.8614 465.635 30.8936 465.61 30.9257C465.584 30.9587 465.555 30.9901 465.524 31.0195C465.506 31.0422 465.486 31.0636 465.465 31.0838C465.425 31.1233 465.386 31.1628 465.344 31.1999C465.33 31.2152 465.314 31.2292 465.297 31.2419C465.27 31.2666 465.241 31.2913 465.211 31.316C465.196 31.3284 465.179 31.3432 465.162 31.3556C465.15 31.3654 465.137 31.3753 465.122 31.3877H465.12C465.066 31.4302 465.01 31.4698 464.952 31.5063C464.952 31.5066 464.952 31.5069 464.952 31.5072C464.952 31.5075 464.952 31.5078 464.952 31.508C464.952 31.5082 464.951 31.5084 464.951 31.5086C464.951 31.5087 464.95 31.5087 464.95 31.5087C464.948 31.5087 464.948 31.5112 464.945 31.5137C464.911 31.5384 464.874 31.5606 464.837 31.5828C464.817 31.5952 464.797 31.6051 464.778 31.615C464.773 31.6191 464.768 31.6224 464.763 31.6248C464.741 31.6372 464.721 31.6495 464.699 31.6594C464.642 31.6891 464.585 31.7187 464.526 31.7459C464.458 31.7783 464.388 31.8072 464.317 31.8324C464.316 31.8339 464.314 31.8351 464.312 31.8359C464.311 31.8368 464.309 31.8373 464.307 31.8373C464.291 31.8442 464.274 31.8499 464.258 31.8546C464.226 31.8669 464.191 31.8793 464.159 31.8892C464.134 31.8966 464.112 31.9015 464.088 31.9089C464.036 31.9262 463.982 31.9386 463.928 31.9509C463.913 31.9554 463.898 31.9587 463.883 31.9608C463.856 31.9682 463.829 31.9732 463.802 31.9781C463.801 31.9779 463.799 31.9781 463.798 31.9785C463.797 31.9789 463.795 31.9796 463.794 31.9806C463.786 31.98 463.777 31.9817 463.77 31.9855C463.764 31.9851 463.758 31.986 463.753 31.988C463.711 31.9954 463.666 32.0003 463.622 32.0077C463.597 32.0102 463.57 32.0127 463.543 32.0152C463.539 32.0172 463.535 32.018 463.531 32.0176C463.519 32.0176 463.504 32.0201 463.491 32.0201C463.479 32.0222 463.467 32.023 463.454 32.0226C463.444 32.0247 463.433 32.0255 463.422 32.025H463.41C463.398 32.0275 463.383 32.0275 463.368 32.03C463.319 32.0325 463.27 32.0325 463.22 32.0325H424.175C423.481 32.0309 422.807 31.8002 422.258 31.3759C421.708 30.9516 421.313 30.3574 421.134 29.6854C421.115 29.6039 421.095 29.5224 421.083 29.4384C421.048 29.2543 421.031 29.0674 421.031 28.88V24.48C421.117 24.4059 421.201 24.3293 421.285 24.2502C421.371 24.1687 421.455 24.0872 421.538 24.0032C422.272 23.2373 422.941 22.4108 423.537 21.5326C423.556 21.5055 423.576 21.4808 423.593 21.4536C423.633 21.3968 423.672 21.3424 423.714 21.2856C424.311 20.4086 424.98 19.5824 425.712 18.815C425.796 18.731 425.88 18.6495 425.966 18.568C426.882 17.7033 427.927 17.0585 429.159 16.9053C430.856 16.6928 432.436 17.4809 433.833 18.568C433.936 18.6495 434.037 18.731 434.138 18.815C434.616 19.2054 435.069 19.6303 435.498 20.0528C435.611 20.1664 435.727 20.2801 435.843 20.3937C436.141 20.6926 436.447 20.9916 436.755 21.2856C436.843 21.3696 436.93 21.4511 437.018 21.5326C438.25 22.6765 439.583 23.682 441.167 24.0032C441.276 24.0254 441.387 24.0452 441.497 24.06C442.096 24.1399 442.704 24.1207 443.296 24.0032C443.395 23.9859 443.491 23.9637 443.589 23.939C445.072 23.5708 446.447 22.6444 447.691 21.5326C447.78 21.4511 447.871 21.3696 447.96 21.2856C448.596 20.6951 449.199 20.0627 449.763 19.4401C449.951 19.2326 450.143 19.0225 450.335 18.815C450.414 18.7335 450.49 18.652 450.567 18.568C451.391 17.6669 452.293 16.8402 453.262 16.0974C453.378 16.0109 453.493 15.9294 453.609 15.8504C454.913 14.9585 456.337 14.3853 457.901 14.4767C459.192 14.5509 460.372 15.0845 461.434 15.8504C461.543 15.9294 461.651 16.0109 461.759 16.0974C462.567 16.7484 463.305 17.4829 463.96 18.2888C464.036 18.3802 464.112 18.4741 464.189 18.568C464.228 18.6149 464.265 18.6643 464.304 18.7113L464.386 18.815C465.039 19.6328 465.667 20.4827 466.335 21.2856L466.364 21.3226Z" fill="black"/>
</g>
<g opacity="0.1">
<path opacity="0.1" d="M466.364 18.2023V28.8801C466.365 29.0674 466.347 29.2544 466.312 29.4384C466.3 29.5224 466.28 29.6039 466.261 29.6855C466.239 29.7695 466.211 29.8535 466.184 29.935C466.167 29.9795 466.152 30.0239 466.133 30.0659C466.125 30.0882 466.115 30.1079 466.106 30.1302C466.083 30.1845 466.059 30.2364 466.032 30.2883C466.032 30.2908 466.032 30.2932 466.029 30.2932C466.014 30.3229 466 30.3525 465.985 30.3797C465.955 30.434 465.923 30.4884 465.891 30.5403C465.852 30.6045 465.812 30.6638 465.768 30.7231C465.743 30.7601 465.716 30.7956 465.687 30.8293C465.662 30.8615 465.635 30.8936 465.61 30.9257C465.584 30.9587 465.555 30.9901 465.524 31.0196C465.506 31.0422 465.486 31.0636 465.465 31.0838C465.425 31.1233 465.386 31.1629 465.344 31.1999C465.33 31.2152 465.314 31.2292 465.297 31.2419C465.27 31.2666 465.241 31.2913 465.211 31.316C465.196 31.3284 465.179 31.3432 465.162 31.3556C465.15 31.3654 465.137 31.3753 465.122 31.3877H465.12C465.066 31.4302 465.01 31.4698 464.952 31.5063C464.952 31.5066 464.952 31.5069 464.952 31.5072C464.952 31.5075 464.952 31.5078 464.952 31.508C464.952 31.5083 464.951 31.5084 464.951 31.5086C464.951 31.5087 464.95 31.5087 464.95 31.5087C464.948 31.5087 464.948 31.5112 464.945 31.5137C464.911 31.5384 464.874 31.5606 464.837 31.5829C464.817 31.5952 464.797 31.6051 464.778 31.615C464.773 31.6191 464.768 31.6224 464.763 31.6249C464.741 31.6372 464.721 31.6496 464.699 31.6594C464.642 31.6891 464.585 31.7187 464.526 31.7459C464.458 31.7783 464.388 31.8072 464.317 31.8324C464.316 31.8339 464.314 31.8351 464.312 31.836C464.311 31.8368 464.309 31.8373 464.307 31.8373C464.291 31.8442 464.274 31.85 464.258 31.8546C464.226 31.867 464.191 31.8793 464.159 31.8892C464.134 31.8966 464.112 31.9015 464.088 31.909C464.036 31.9263 463.982 31.9386 463.928 31.951C463.913 31.9554 463.898 31.9587 463.883 31.9608C463.856 31.9683 463.829 31.9732 463.802 31.9781C463.801 31.978 463.799 31.9781 463.798 31.9785C463.797 31.979 463.795 31.9797 463.794 31.9806C463.786 31.9801 463.777 31.9818 463.77 31.9855C463.764 31.9851 463.758 31.986 463.753 31.988C463.711 31.9954 463.666 32.0004 463.622 32.0078C463.597 32.0102 463.57 32.0127 463.543 32.0152C463.539 32.0172 463.535 32.018 463.531 32.0177C463.519 32.0177 463.504 32.0201 463.491 32.0201C463.479 32.0222 463.467 32.023 463.454 32.0226C463.453 32.0239 463.451 32.0248 463.45 32.0251H463.41C463.349 32.03 463.284 32.0325 463.22 32.0325H424.175C423.481 32.031 422.807 31.8002 422.258 31.3759C421.708 30.9516 421.313 30.3575 421.134 29.6855C421.115 29.6039 421.095 29.5224 421.083 29.4384C421.048 29.2543 421.031 29.0674 421.031 28.88V22.5011C421.28 22.1775 421.529 21.8546 421.78 21.5327C421.844 21.4486 421.908 21.3671 421.972 21.2856C422.31 20.8508 422.65 20.4209 422.999 20.0009C423.335 19.5982 423.687 19.2004 424.054 18.815C424.133 18.7335 424.212 18.6495 424.293 18.568C425.228 17.5916 426.301 16.759 427.479 16.0974C427.639 16.0085 427.801 15.927 427.966 15.8504C428.841 15.4319 429.786 15.1845 430.753 15.1216C432.021 15.0581 433.285 15.3084 434.434 15.8504C434.606 15.9245 434.776 16.0085 434.944 16.0974C436.149 16.72 437.279 17.5921 438.339 18.568C438.43 18.6471 438.516 18.731 438.605 18.815C439.445 19.6056 440.241 20.453 441 21.2856C441.056 21.3474 441.113 21.4116 441.17 21.4734C441.187 21.4931 441.207 21.5129 441.224 21.5327C441.963 22.3479 442.751 23.1731 443.589 23.939C443.611 23.9612 443.636 23.981 443.661 24.0032C443.752 24.0872 443.843 24.1687 443.937 24.2503C444.267 24.5443 444.607 24.8259 444.952 25.0927C445.769 25.7383 446.66 26.2848 447.605 26.7208C447.805 26.8122 448.007 26.8938 448.211 26.9679C449.338 27.3993 450.553 27.5436 451.749 27.3879C452.298 27.3116 452.837 27.1706 453.353 26.9679C453.55 26.8938 453.742 26.8098 453.932 26.7208C455.181 26.1279 456.31 25.2311 457.379 24.2503C457.468 24.1687 457.556 24.0872 457.645 24.0032C458.253 23.43 458.845 22.8346 459.429 22.259C459.675 22.0169 459.926 21.7723 460.185 21.5327C460.274 21.4511 460.365 21.3696 460.456 21.2856C460.767 21.0064 461.087 20.7322 461.417 20.4728C462.224 19.8105 463.111 19.2535 464.058 18.815C464.139 18.778 464.223 18.7434 464.304 18.7113C464.43 18.6594 464.556 18.6125 464.681 18.568C465.224 18.373 465.79 18.2501 466.364 18.2023Z" fill="black"/>
</g>
<path d="M430.763 16.5916C431.171 16.5916 431.502 16.2597 431.502 15.8504C431.502 15.4411 431.171 15.1092 430.763 15.1092C430.355 15.1092 430.024 15.4411 430.024 15.8504C430.024 16.2597 430.355 16.5916 430.763 16.5916Z" fill="white"/>
<path d="M442.096 24.7444C442.504 24.7444 442.835 24.4126 442.835 24.0032C442.835 23.5939 442.504 23.2621 442.096 23.2621C441.688 23.2621 441.357 23.5939 441.357 24.0032C441.357 24.4126 441.688 24.7444 442.096 24.7444Z" fill="white"/>
<path d="M457.371 19.3091C457.78 19.3091 458.111 18.9773 458.111 18.568C458.111 18.1586 457.78 17.8268 457.371 17.8268C456.963 17.8268 456.632 18.1586 456.632 18.568C456.632 18.9773 456.963 19.3091 457.371 19.3091Z" fill="white"/>
<path d="M490.992 24.8917H473.564C473.481 24.8916 473.399 24.9078 473.323 24.9395C473.246 24.9711 473.177 25.0175 473.118 25.0761C473.06 25.1347 473.013 25.2042 472.982 25.2808C472.95 25.3573 472.934 25.4394 472.934 25.5223C472.934 25.6052 472.95 25.6873 472.982 25.7638C473.013 25.8404 473.06 25.91 473.118 25.9685C473.177 26.0271 473.246 26.0735 473.323 26.1052C473.399 26.1368 473.481 26.153 473.564 26.1529H490.992C491.159 26.1529 491.319 26.0865 491.437 25.9682C491.555 25.85 491.621 25.6896 491.621 25.5223C491.621 25.3551 491.555 25.1947 491.437 25.0764C491.319 24.9582 491.159 24.8917 490.992 24.8917Z" fill="#E6E6E6"/>
<path d="M490.992 34.4407H473.564C473.397 34.4407 473.237 34.5071 473.119 34.6254C473.001 34.7437 472.935 34.904 472.935 35.0713C472.935 35.2385 473.001 35.3989 473.119 35.5172C473.237 35.6354 473.397 35.7019 473.564 35.7019H490.992C491.159 35.7019 491.319 35.6354 491.437 35.5172C491.555 35.3989 491.621 35.2385 491.621 35.0713C491.621 34.904 491.555 34.7437 491.437 34.6254C491.319 34.5071 491.159 34.4407 490.992 34.4407Z" fill="#E6E6E6"/>
<path d="M490.992 43.9897H473.564C473.397 43.9897 473.237 44.0561 473.119 44.1744C473.001 44.2926 472.935 44.453 472.935 44.6203C472.935 44.7875 473.001 44.9479 473.119 45.0662C473.237 45.1844 473.397 45.2509 473.564 45.2509H490.992C491.159 45.2509 491.319 45.1844 491.437 45.0662C491.555 44.9479 491.621 44.7875 491.621 44.6203C491.621 44.453 491.555 44.2926 491.437 44.1744C491.319 44.0561 491.159 43.9897 490.992 43.9897Z" fill="#E6E6E6"/>
<path d="M501.552 27.1443C502.42 27.1443 503.123 26.4392 503.123 25.5695C503.123 24.6998 502.42 23.9947 501.552 23.9947C500.685 23.9947 499.982 24.6998 499.982 25.5695C499.982 26.4392 500.685 27.1443 501.552 27.1443Z" fill="#F2F2F2"/>
<path d="M501.338 26.3891C501.311 26.3891 501.284 26.3828 501.26 26.3706C501.236 26.3584 501.215 26.3408 501.198 26.319L500.77 25.7462C500.756 25.7278 500.746 25.7068 500.74 25.6845C500.735 25.6622 500.733 25.639 500.737 25.6162C500.74 25.5934 500.748 25.5715 500.759 25.5517C500.771 25.5319 500.786 25.5146 500.805 25.5008C500.823 25.4869 500.844 25.4769 500.866 25.4712C500.889 25.4655 500.912 25.4642 500.934 25.4675C500.957 25.4708 500.979 25.4785 500.999 25.4903C501.019 25.502 501.036 25.5175 501.05 25.536L501.33 25.9107L502.05 24.8279C502.075 24.7892 502.115 24.7624 502.161 24.7532C502.206 24.7441 502.254 24.7535 502.292 24.7793C502.331 24.805 502.357 24.8451 502.366 24.8907C502.376 24.9362 502.366 24.9835 502.341 25.0222L501.484 26.3111C501.468 26.3344 501.447 26.3536 501.423 26.3672C501.398 26.3808 501.371 26.3883 501.343 26.389L501.338 26.3891Z" fill="white"/>
<path d="M501.552 36.6933C502.42 36.6933 503.123 35.9882 503.123 35.1185C503.123 34.2488 502.42 33.5437 501.552 33.5437C500.685 33.5437 499.982 34.2488 499.982 35.1185C499.982 35.9882 500.685 36.6933 501.552 36.6933Z" fill="#F2F2F2"/>
<path d="M501.338 35.938C501.311 35.938 501.284 35.9317 501.26 35.9196C501.236 35.9074 501.215 35.8897 501.198 35.868L500.77 35.2951C500.756 35.2767 500.746 35.2558 500.74 35.2335C500.735 35.2112 500.733 35.188 500.737 35.1652C500.74 35.1424 500.748 35.1205 500.759 35.1007C500.771 35.0808 500.786 35.0635 500.805 35.0497C500.823 35.0359 500.844 35.0259 500.866 35.0202C500.889 35.0144 500.912 35.0132 500.934 35.0165C500.957 35.0197 500.979 35.0275 500.999 35.0392C501.019 35.051 501.036 35.0665 501.05 35.0849L501.33 35.4597L502.05 34.3768C502.063 34.3577 502.079 34.3413 502.098 34.3285C502.117 34.3157 502.138 34.3067 502.161 34.3022C502.183 34.2977 502.207 34.2977 502.229 34.3022C502.252 34.3066 502.273 34.3155 502.292 34.3282C502.311 34.341 502.328 34.3574 502.34 34.3765C502.353 34.3956 502.362 34.4171 502.366 34.4396C502.371 34.4622 502.371 34.4854 502.367 34.508C502.362 34.5306 502.353 34.552 502.341 34.5712L501.484 35.86C501.468 35.8833 501.447 35.9026 501.423 35.9162C501.398 35.9297 501.371 35.9372 501.343 35.938L501.338 35.938Z" fill="white"/>
<path d="M501.552 46.2423C502.42 46.2423 503.123 45.5372 503.123 44.6675C503.123 43.7977 502.42 43.0927 501.552 43.0927C500.685 43.0927 499.982 43.7977 499.982 44.6675C499.982 45.5372 500.685 46.2423 501.552 46.2423Z" fill="#F2F2F2"/>
<path d="M490.992 15.3427H473.564C473.397 15.3427 473.237 15.4092 473.119 15.5274C473.001 15.6457 472.935 15.8061 472.935 15.9733C472.935 16.1406 473.001 16.301 473.119 16.4192C473.237 16.5375 473.397 16.6039 473.564 16.6039H490.992C491.159 16.6039 491.319 16.5375 491.437 16.4192C491.555 16.301 491.621 16.1406 491.621 15.9733C491.621 15.8061 491.555 15.6457 491.437 15.5274C491.319 15.4092 491.159 15.3427 490.992 15.3427Z" fill="#E6E6E6"/>
<path d="M501.552 17.5953C502.42 17.5953 503.123 16.8902 503.123 16.0205C503.123 15.1508 502.42 14.4457 501.552 14.4457C500.685 14.4457 499.982 15.1508 499.982 16.0205C499.982 16.8902 500.685 17.5953 501.552 17.5953Z" fill="#244369"/>
<path d="M501.338 16.8401C501.311 16.8401 501.284 16.8338 501.26 16.8216C501.236 16.8094 501.215 16.7918 501.198 16.77L500.77 16.1972C500.756 16.1788 500.746 16.1578 500.74 16.1355C500.735 16.1132 500.733 16.09 500.737 16.0672C500.74 16.0444 500.748 16.0225 500.759 16.0027C500.771 15.9829 500.786 15.9656 500.805 15.9518C500.823 15.938 500.844 15.9279 500.866 15.9222C500.889 15.9165 500.912 15.9152 500.934 15.9185C500.957 15.9218 500.979 15.9295 500.999 15.9413C501.019 15.953 501.036 15.9685 501.05 15.987L501.33 16.3617L502.05 15.2789C502.063 15.2597 502.079 15.2433 502.098 15.2305C502.117 15.2177 502.138 15.2088 502.161 15.2043C502.183 15.1998 502.207 15.1997 502.229 15.2042C502.252 15.2087 502.273 15.2175 502.292 15.2303C502.311 15.243 502.328 15.2595 502.34 15.2786C502.353 15.2977 502.362 15.3191 502.366 15.3417C502.371 15.3642 502.371 15.3875 502.367 15.41C502.362 15.4326 502.353 15.4541 502.34 15.4732L501.484 16.7621C501.468 16.7854 501.447 16.8047 501.423 16.8182C501.398 16.8318 501.371 16.8393 501.343 16.8401L501.338 16.8401Z" fill="white"/>
<path d="M496.342 17.5953C497.209 17.5953 497.912 16.8902 497.912 16.0205C497.912 15.1508 497.209 14.4457 496.342 14.4457C495.475 14.4457 494.771 15.1508 494.771 16.0205C494.771 16.8902 495.475 17.5953 496.342 17.5953Z" fill="#F2F2F2"/>
<path d="M496.342 27.1443C497.209 27.1443 497.912 26.4392 497.912 25.5695C497.912 24.6998 497.209 23.9947 496.342 23.9947C495.475 23.9947 494.771 24.6998 494.771 25.5695C494.771 26.4392 495.475 27.1443 496.342 27.1443Z" fill="#F2F2F2"/>
<path d="M496.342 36.6933C497.209 36.6933 497.912 35.9882 497.912 35.1185C497.912 34.2488 497.209 33.5437 496.342 33.5437C495.475 33.5437 494.771 34.2488 494.771 35.1185C494.771 35.9882 495.475 36.6933 496.342 36.6933Z" fill="#F2F2F2"/>
<path d="M496.342 46.2423C497.209 46.2423 497.912 45.5372 497.912 44.6675C497.912 43.7977 497.209 43.0927 496.342 43.0927C495.475 43.0927 494.771 43.7977 494.771 44.6675C494.771 45.5372 495.475 46.2423 496.342 46.2423Z" fill="#F2F2F2"/>
<path d="M501.338 45.4871C501.311 45.4871 501.284 45.4807 501.26 45.4686C501.236 45.4564 501.215 45.4388 501.198 45.417L500.77 44.8441C500.756 44.8257 500.746 44.8048 500.741 44.7825C500.735 44.7602 500.734 44.737 500.737 44.7143C500.74 44.6915 500.748 44.6696 500.759 44.6498C500.771 44.63 500.787 44.6127 500.805 44.5989C500.823 44.5851 500.844 44.5751 500.866 44.5694C500.889 44.5637 500.912 44.5624 500.934 44.5656C500.957 44.5689 500.979 44.5766 500.999 44.5883C501.019 44.6 501.036 44.6155 501.05 44.634L501.33 45.0087L502.05 43.9258C502.075 43.8872 502.115 43.8604 502.161 43.8512C502.206 43.8421 502.253 43.8515 502.292 43.8773C502.331 43.903 502.357 43.9431 502.366 43.9887C502.376 44.0342 502.366 44.0815 502.34 44.1202L501.484 45.4091C501.468 45.4324 501.447 45.4516 501.423 45.4652C501.398 45.4787 501.371 45.4862 501.343 45.487L501.338 45.4871Z" fill="white"/>
<path d="M499.074 75.4295C499.074 75.4385 499.073 75.4475 499.069 75.4557C499.066 75.464 499.06 75.4713 499.053 75.4772C499.043 75.4852 499.03 75.4904 499.017 75.4921C499.003 75.495 498.989 75.4924 498.978 75.4851C498.966 75.4777 498.958 75.4661 498.954 75.4526C498.767 74.8208 498.308 74.3361 497.873 73.8609C497.482 73.4347 497.098 72.9853 496.901 72.4312C496.816 72.211 496.778 71.9752 496.79 71.7393C496.802 71.5035 496.864 71.2728 496.972 71.0627C497.039 70.937 497.118 70.8176 497.207 70.7059C497.401 70.4581 497.632 70.2375 497.84 70.0033C497.861 69.9788 497.883 69.9529 497.903 69.9284C497.932 69.8971 497.958 69.8644 497.982 69.8318C498.241 69.5105 498.421 69.1327 498.508 68.7288C498.6 68.2363 498.615 67.7321 498.55 67.2351C498.523 66.9709 498.485 66.7086 498.437 66.4481C498.434 66.4358 498.433 66.4249 498.43 66.414C498.221 65.2966 497.839 64.2185 497.3 63.2182C497.28 63.1815 497.261 63.1447 497.241 63.1093C497.154 62.9513 497.064 62.7961 496.969 62.6436C497.002 62.6205 497.037 62.5987 497.072 62.5782C497.384 63.0839 497.655 63.6134 497.883 64.1618C498.178 64.8655 498.4 65.5979 498.544 66.3473C498.554 66.3881 498.561 66.4304 498.567 66.4712C498.624 66.7857 498.666 67.1044 498.692 67.4216C498.743 67.9194 498.709 68.4222 498.592 68.9086C498.485 69.2944 498.297 69.6525 498.039 69.9584C497.993 70.0169 497.944 70.0741 497.892 70.13C497.686 70.356 497.458 70.5752 497.272 70.8217C497.177 70.9455 497.096 71.0798 497.032 71.222C496.813 71.7122 496.916 72.2487 497.158 72.7089C497.595 73.5463 498.429 74.1169 498.873 74.9379C498.955 75.0892 499.021 75.2484 499.071 75.4132C499.073 75.4185 499.074 75.424 499.074 75.4295Z" fill="white"/>
<path d="M498.511 66.4856C498.892 66.3896 499.227 66.1608 499.456 65.84C499.684 65.5193 499.792 65.1276 499.759 64.7347C499.752 64.6553 499.629 64.6623 499.635 64.7419C499.667 65.1076 499.567 65.4726 499.353 65.7708C499.14 66.069 498.827 66.2809 498.471 66.3682C498.394 66.3873 498.434 66.5046 498.511 66.4856Z" fill="white"/>
<path d="M498.016 69.852C497.323 69.4444 496.808 68.7897 496.575 68.0186C496.552 67.9422 496.435 67.9821 496.458 68.0584C496.702 68.8604 497.239 69.5405 497.961 69.9631C498.03 70.0034 498.084 69.892 498.016 69.852Z" fill="white"/>
<path d="M497.315 63.2114C497.31 63.2142 497.306 63.2155 497.3 63.2183C497.056 63.3301 496.778 63.3433 496.524 63.255C496.535 63.215 496.549 63.1759 496.566 63.1379C496.786 63.2138 497.027 63.2035 497.241 63.1093C497.253 63.1052 497.264 63.0998 497.276 63.0943C497.292 63.089 497.308 63.09 497.323 63.0971C497.338 63.1043 497.349 63.117 497.355 63.1325C497.359 63.1482 497.358 63.165 497.35 63.1796C497.343 63.1942 497.331 63.2056 497.315 63.2114Z" fill="white"/>
<path d="M490.547 42.3464C490.665 42.203 490.751 42.0353 490.798 41.855C490.846 41.6747 490.853 41.4863 490.819 41.3029C490.786 41.1196 490.713 40.9458 490.605 40.7939C490.498 40.6419 490.358 40.5154 490.196 40.4234L491.016 35.9684L488.855 36.8862L488.407 40.976C488.271 41.2585 488.243 41.5813 488.328 41.8832C488.414 42.1851 488.606 42.4452 488.87 42.6141C489.134 42.783 489.45 42.849 489.759 42.7997C490.068 42.7504 490.348 42.5891 490.547 42.3464Z" fill="#FFB6B6"/>
<path d="M491.866 29.1607L491.179 26.8445L486.334 19.2642C486.064 18.9486 485.742 18.6823 485.382 18.4772C484.666 18.0667 483.831 17.9148 483.017 18.0467C482.203 18.1786 481.458 18.5864 480.907 19.2021C480.356 19.8178 480.033 20.6042 479.99 21.4302C479.947 22.2562 480.188 23.0719 480.673 23.7413C480.773 23.8812 480.883 24.0132 481.003 24.1362L487.278 30.6258L487.635 30.9962L488.2 32.4286L488.422 38.9605L488.622 39.0081L490.381 39.4234L490.626 39.482L491.038 37.3483L491.296 36.3284C491.515 35.4586 491.626 34.5649 491.626 33.6677C491.626 33.3913 491.616 33.1135 491.594 32.8371L491.866 29.1607Z" fill="#3F3D56"/>
<path d="M485.206 74.2025H483.523L482.723 67.6952L485.206 67.6953L485.206 74.2025Z" fill="#FFB6B6"/>
<path d="M485.161 73.6512L483.366 72.92L483.313 72.8982L482.321 73.6512C481.777 73.6511 481.254 73.8617 480.861 74.2389C480.469 74.6162 480.236 75.131 480.213 75.676C480.21 75.7059 480.21 75.7372 480.21 75.7685V75.838H485.635V73.6512H485.161Z" fill="#2F2E41"/>
<path d="M482.002 70.8372L480.551 71.6927L476.571 66.4915L478.711 65.2288L482.002 70.8372Z" fill="#FFB6B6"/>
<path d="M483.003 71.6945L482.806 71.3582L482.093 70.1436L481.722 70.3628L481.684 70.3846L479.767 70.6678L479.71 70.676L479.238 71.8293C478.998 71.9703 478.789 72.1571 478.622 72.3791C478.455 72.6011 478.333 72.8539 478.264 73.1231C478.194 73.3923 478.178 73.6726 478.217 73.948C478.255 74.2234 478.347 74.4886 478.488 74.7283L478.523 74.7868L483.199 72.0281L483.003 71.6945Z" fill="#2F2E41"/>
<path d="M487.336 34.4206C488.125 36.8061 488.042 39.3956 487.147 42.1748L486.913 51.7288L486.163 57.7553C486.615 58.9361 486.847 60.1904 486.848 61.4554C486.844 64.7713 486.622 69.482 485.495 71.695H482.827L482.225 61.8402L481.506 56.8855L481.418 51.576L481.34 46.9452L478.44 51.1985L475.621 55.3314L478.423 60.0701L480.867 67.6953L478.287 69.874L475.36 64.3098L473.942 62.6572L470.069 54.2517L470.417 53.0813C471.134 50.6712 472.175 48.3702 473.511 46.2418L477.363 37.278L487.336 34.4206Z" fill="#2F2E41"/>
<path d="M487.678 33.6242L487.238 32.7418L487.278 30.6258L487.409 23.4717C487.425 22.5451 487.254 21.6248 486.905 20.7664C486.557 19.908 486.039 19.1293 485.382 18.4772C484.992 18.0878 484.556 17.748 484.084 17.4655L483.139 16.899L482.661 15.6817L478.253 15.7893L478.244 16.9698L478.239 17.3852L476.66 19.9096L476.662 19.9205L476.694 24.5147L476.759 33.6596L477.195 35.077L476.537 36.7274L476.887 37.7785L477.167 37.7336L486.588 36.2235C487.016 36.0858 487.38 35.7963 487.61 35.4093C487.657 35.3336 487.697 35.2544 487.731 35.1724C487.834 34.9257 487.882 34.6596 487.873 34.3925C487.864 34.1253 487.798 33.8632 487.678 33.6242Z" fill="#3F3D56"/>
<path d="M480.053 14.1675C482.265 14.1675 484.058 12.3694 484.058 10.1512C484.058 7.9331 482.265 6.13495 480.053 6.13495C477.841 6.13495 476.048 7.9331 476.048 10.1512C476.048 12.3694 477.841 14.1675 480.053 14.1675Z" fill="#FFB6B6"/>
<path d="M482.544 13.4792C482.967 13.1807 483.396 12.6126 483.681 12.1872C484.059 11.6281 484.316 10.9955 484.435 10.3305C484.554 9.66542 484.532 8.98278 484.37 8.32677C484.318 8.06431 484.196 7.82109 484.016 7.62333C483.924 7.52679 483.804 7.46188 483.673 7.43791C483.542 7.41393 483.407 7.43211 483.287 7.48985C483.348 7.32027 483.373 7.14006 483.361 6.96034C483.349 6.78062 483.301 6.6052 483.219 6.44491C483.053 6.1249 482.815 5.84813 482.523 5.63655C481.966 5.21814 481.305 4.95892 480.613 4.88641C479.92 4.8139 479.221 4.9308 478.589 5.22471C478.34 5.34441 478.739 4.44099 478.478 4.53119C478.219 4.6358 477.93 4.63471 477.672 4.52816C477.424 4.40727 476.618 5.15717 476.709 4.89611C476.523 4.98379 476.363 5.11717 476.242 5.28384C476.122 5.4505 476.045 5.64502 476.02 5.84929C475.995 6.05356 476.021 6.26092 476.097 6.45207C476.174 6.64323 476.297 6.81195 476.455 6.94253C476.664 7.11462 476.924 7.21177 477.152 7.35718C477.553 7.6314 477.839 8.04313 477.957 8.51462C478.076 8.98611 478.018 9.48474 477.795 9.91635C478.031 9.75963 478.29 9.64216 478.564 9.56848C478.701 9.53289 478.844 9.53066 478.983 9.56197C479.121 9.59327 479.25 9.65721 479.358 9.74847C479.449 9.85011 479.519 9.96934 479.562 10.0988C479.605 10.2284 479.622 10.3654 479.611 10.5016C479.606 10.7742 479.545 11.0436 479.541 11.3163C479.531 12.1164 479.125 13.6429 479.749 14.0595C480.242 14.3882 481.967 13.8867 482.544 13.4792Z" fill="#2F2E41"/>
<path d="M457.802 19.9202C457.897 20.0805 458.026 20.218 458.179 20.3231C458.333 20.4282 458.507 20.4982 458.691 20.5283C458.874 20.5584 459.062 20.5477 459.241 20.4972C459.42 20.4466 459.585 20.3573 459.726 20.2356L463.635 22.5071L463.499 20.1569L459.808 18.3602C459.589 18.1366 459.295 18.0016 458.983 17.9806C458.67 17.9597 458.361 18.0544 458.114 18.2467C457.867 18.439 457.699 18.7155 457.641 19.024C457.583 19.3324 457.641 19.6513 457.802 19.9202Z" fill="#FFB6B6"/>
<path d="M483.045 19.2166C482.893 18.7413 482.645 18.3026 482.317 17.9281C481.988 17.5536 481.585 17.2513 481.134 17.0403C480.683 16.8293 480.194 16.7141 479.696 16.702C479.199 16.6899 478.704 16.7811 478.244 16.9699C478.2 16.9876 478.157 17.0066 478.113 17.0257L469.442 20.984L466.066 20.5823L461.696 19.0518L461.585 19.2247L460.603 20.7457L460.466 20.9581L465.153 23.7373L465.65 23.8407C466.083 23.9305 466.494 24.1051 466.859 24.3544C467.225 24.6037 467.537 24.9229 467.779 25.2936L469.596 25.8927L476.694 24.5148L480.673 23.7413L480.898 23.6978C481.58 23.4346 482.166 22.9707 482.58 22.3669C482.994 21.7632 483.216 21.048 483.216 20.3154C483.216 19.9425 483.159 19.5717 483.045 19.2166Z" fill="#3F3D56"/>
<path d="M503.223 76H455.97C455.927 76 455.886 75.9829 455.855 75.9525C455.825 75.9221 455.808 75.8809 455.808 75.8379C455.808 75.7949 455.825 75.7536 455.855 75.7232C455.886 75.6928 455.927 75.6758 455.97 75.6758H503.223C503.266 75.6758 503.307 75.6928 503.338 75.7232C503.368 75.7536 503.385 75.7949 503.385 75.8379C503.385 75.8809 503.368 75.9221 503.338 75.9525C503.307 75.9829 503.266 76 503.223 76Z" fill="#CCCCCC"/>
<path d="M452.364 38.1174H423.665C423.498 38.1176 423.339 38.1842 423.221 38.3024C423.103 38.4206 423.037 38.5809 423.037 38.748C423.037 38.9151 423.103 39.0753 423.221 39.1935C423.339 39.3118 423.498 39.3783 423.665 39.3786H452.364C452.447 39.3787 452.529 39.3625 452.605 39.3308C452.681 39.2992 452.751 39.2528 452.809 39.1942C452.868 39.1356 452.914 39.0661 452.946 38.9895C452.977 38.9129 452.994 38.8309 452.994 38.748C452.994 38.6651 452.977 38.583 452.946 38.5064C452.914 38.4299 452.868 38.3603 452.809 38.3017C452.751 38.2432 452.681 38.1967 452.605 38.1651C452.529 38.1335 452.447 38.1172 452.364 38.1174H452.364Z" fill="#E6E6E6"/>
<path d="M462.924 40.3699C463.792 40.3699 464.495 39.6649 464.495 38.7952C464.495 37.9254 463.792 37.2204 462.924 37.2204C462.057 37.2204 461.354 37.9254 461.354 38.7952C461.354 39.6649 462.057 40.3699 462.924 40.3699Z" fill="#244369"/>
<path d="M462.71 39.6148C462.683 39.6148 462.656 39.6084 462.632 39.5963C462.608 39.5841 462.587 39.5664 462.57 39.5447L462.142 38.9718C462.128 38.9534 462.118 38.9325 462.113 38.9102C462.107 38.8879 462.106 38.8647 462.109 38.842C462.112 38.8192 462.12 38.7973 462.131 38.7775C462.143 38.7577 462.159 38.7404 462.177 38.7266C462.195 38.7128 462.216 38.7028 462.238 38.6971C462.261 38.6913 462.284 38.6901 462.306 38.6933C462.329 38.6966 462.351 38.7043 462.371 38.716C462.39 38.7277 462.408 38.7432 462.421 38.7616L462.702 39.1364L463.422 38.0535C463.434 38.0344 463.451 38.018 463.47 38.0052C463.489 37.9924 463.51 37.9834 463.533 37.9789C463.555 37.9744 463.578 37.9744 463.601 37.9789C463.623 37.9833 463.645 37.9922 463.664 38.0049C463.683 38.0177 463.699 38.0341 463.712 38.0532C463.725 38.0723 463.734 38.0938 463.738 38.1163C463.743 38.1389 463.743 38.1621 463.738 38.1847C463.734 38.2073 463.725 38.2287 463.712 38.2479L462.856 39.5368C462.84 39.5601 462.819 39.5793 462.795 39.5929C462.77 39.6064 462.743 39.6139 462.715 39.6147L462.71 39.6148Z" fill="white"/>
<path d="M457.714 40.3699C458.581 40.3699 459.284 39.6649 459.284 38.7952C459.284 37.9254 458.581 37.2204 457.714 37.2204C456.846 37.2204 456.143 37.9254 456.143 38.7952C456.143 39.6649 456.846 40.3699 457.714 40.3699Z" fill="#F2F2F2"/>
<path d="M452.228 45.7426H423.529C423.362 45.7429 423.203 45.8094 423.085 45.9276C422.967 46.0459 422.901 46.2061 422.901 46.3732C422.901 46.5403 422.967 46.7005 423.085 46.8188C423.203 46.937 423.362 47.0036 423.529 47.0038H452.228C452.395 47.0038 452.555 46.9374 452.673 46.8191C452.791 46.7009 452.857 46.5405 452.857 46.3732C452.857 46.206 452.791 46.0456 452.673 45.9273C452.555 45.8091 452.395 45.7426 452.228 45.7426H452.228Z" fill="#E6E6E6"/>
<path d="M462.789 47.9952C463.656 47.9952 464.359 47.2901 464.359 46.4204C464.359 45.5507 463.656 44.8456 462.789 44.8456C461.921 44.8456 461.218 45.5507 461.218 46.4204C461.218 47.2901 461.921 47.9952 462.789 47.9952Z" fill="#F2F2F2"/>
<path d="M462.574 47.24C462.547 47.24 462.521 47.2336 462.496 47.2215C462.472 47.2093 462.451 47.1916 462.435 47.1699L462.006 46.597C461.978 46.5599 461.966 46.5132 461.973 46.4672C461.98 46.4212 462.004 46.3797 462.041 46.3518C462.078 46.3239 462.125 46.312 462.171 46.3185C462.217 46.3251 462.258 46.3497 462.286 46.3868L462.566 46.7616L463.286 45.6787C463.299 45.6596 463.315 45.6432 463.334 45.6304C463.353 45.6176 463.375 45.6087 463.397 45.6041C463.42 45.5996 463.443 45.5996 463.465 45.6041C463.488 45.6085 463.509 45.6174 463.528 45.6302C463.547 45.6429 463.564 45.6593 463.576 45.6784C463.589 45.6976 463.598 45.719 463.603 45.7416C463.607 45.7641 463.607 45.7873 463.603 45.8099C463.598 45.8325 463.589 45.8539 463.577 45.8731L462.72 47.162C462.704 47.1853 462.683 47.2045 462.659 47.2181C462.635 47.2316 462.607 47.2391 462.579 47.2399L462.574 47.24Z" fill="white"/>
<path d="M457.578 47.9952C458.445 47.9952 459.148 47.2901 459.148 46.4204C459.148 45.5507 458.445 44.8456 457.578 44.8456C456.711 44.8456 456.008 45.5507 456.008 46.4204C456.008 47.2901 456.711 47.9952 457.578 47.9952Z" fill="#F2F2F2"/>
</g>
<defs>
<clipPath id="clip0_0_1">
<rect width="102" height="76" fill="white" transform="translate(412)"/>
</clipPath>
</defs>
</svg>
