<svg width="40" height="40" viewBox="0 0 40 40" fill="none" xmlns="http://www.w3.org/2000/svg">
<path d="M31.6666 13.3333H8.33331C5.56665 13.3333 3.33331 15.5667 3.33331 18.3333V28.3333H9.99998V35H30V28.3333H36.6666V18.3333C36.6666 15.5667 34.4333 13.3333 31.6666 13.3333ZM26.6666 31.6667H13.3333V23.3333H26.6666V31.6667ZM31.6666 20C30.75 20 30 19.25 30 18.3333C30 17.4167 30.75 16.6667 31.6666 16.6667C32.5833 16.6667 33.3333 17.4167 33.3333 18.3333C33.3333 19.25 32.5833 20 31.6666 20ZM30 5H9.99998V11.6667H30V5Z" fill="black"/>
</svg>
